%TF.GenerationSoftware,KiCad,Pcbnew,7.0.7-7.0.7~ubuntu22.04.1*%
%TF.CreationDate,2023-10-30T13:20:32-04:00*%
%TF.ProjectId,kicad_led_torch,6b696361-645f-46c6-9564-5f746f726368,0.1*%
%TF.SameCoordinates,Original*%
%TF.FileFunction,Legend,Top*%
%TF.FilePolarity,Positive*%
%FSLAX46Y46*%
G04 Gerber Fmt 4.6, Leading zero omitted, Abs format (unit mm)*
G04 Created by KiCad (PCBNEW 7.0.7-7.0.7~ubuntu22.04.1) date 2023-10-30 13:20:32*
%MOMM*%
%LPD*%
G01*
G04 APERTURE LIST*
%ADD10C,0.150000*%
%ADD11C,0.120000*%
G04 APERTURE END LIST*
D10*
X122891779Y-94103866D02*
X123653684Y-94103866D01*
X115906779Y-94103866D02*
X116668684Y-94103866D01*
X116287731Y-94484819D02*
X116287731Y-93722914D01*
X163679285Y-101531009D02*
X163822142Y-101578628D01*
X163822142Y-101578628D02*
X163869761Y-101626247D01*
X163869761Y-101626247D02*
X163917380Y-101721485D01*
X163917380Y-101721485D02*
X163917380Y-101864342D01*
X163917380Y-101864342D02*
X163869761Y-101959580D01*
X163869761Y-101959580D02*
X163822142Y-102007200D01*
X163822142Y-102007200D02*
X163726904Y-102054819D01*
X163726904Y-102054819D02*
X163345952Y-102054819D01*
X163345952Y-102054819D02*
X163345952Y-101054819D01*
X163345952Y-101054819D02*
X163679285Y-101054819D01*
X163679285Y-101054819D02*
X163774523Y-101102438D01*
X163774523Y-101102438D02*
X163822142Y-101150057D01*
X163822142Y-101150057D02*
X163869761Y-101245295D01*
X163869761Y-101245295D02*
X163869761Y-101340533D01*
X163869761Y-101340533D02*
X163822142Y-101435771D01*
X163822142Y-101435771D02*
X163774523Y-101483390D01*
X163774523Y-101483390D02*
X163679285Y-101531009D01*
X163679285Y-101531009D02*
X163345952Y-101531009D01*
X164203095Y-101054819D02*
X164774523Y-101054819D01*
X164488809Y-102054819D02*
X164488809Y-101054819D01*
X165631666Y-102054819D02*
X165060238Y-102054819D01*
X165345952Y-102054819D02*
X165345952Y-101054819D01*
X165345952Y-101054819D02*
X165250714Y-101197676D01*
X165250714Y-101197676D02*
X165155476Y-101292914D01*
X165155476Y-101292914D02*
X165060238Y-101340533D01*
X133902200Y-95313332D02*
X133949819Y-95170475D01*
X133949819Y-95170475D02*
X133949819Y-94932380D01*
X133949819Y-94932380D02*
X133902200Y-94837142D01*
X133902200Y-94837142D02*
X133854580Y-94789523D01*
X133854580Y-94789523D02*
X133759342Y-94741904D01*
X133759342Y-94741904D02*
X133664104Y-94741904D01*
X133664104Y-94741904D02*
X133568866Y-94789523D01*
X133568866Y-94789523D02*
X133521247Y-94837142D01*
X133521247Y-94837142D02*
X133473628Y-94932380D01*
X133473628Y-94932380D02*
X133426009Y-95122856D01*
X133426009Y-95122856D02*
X133378390Y-95218094D01*
X133378390Y-95218094D02*
X133330771Y-95265713D01*
X133330771Y-95265713D02*
X133235533Y-95313332D01*
X133235533Y-95313332D02*
X133140295Y-95313332D01*
X133140295Y-95313332D02*
X133045057Y-95265713D01*
X133045057Y-95265713D02*
X132997438Y-95218094D01*
X132997438Y-95218094D02*
X132949819Y-95122856D01*
X132949819Y-95122856D02*
X132949819Y-94884761D01*
X132949819Y-94884761D02*
X132997438Y-94741904D01*
X132949819Y-94408570D02*
X133949819Y-94170475D01*
X133949819Y-94170475D02*
X133235533Y-93979999D01*
X133235533Y-93979999D02*
X133949819Y-93789523D01*
X133949819Y-93789523D02*
X132949819Y-93551428D01*
X133949819Y-92646666D02*
X133949819Y-93218094D01*
X133949819Y-92932380D02*
X132949819Y-92932380D01*
X132949819Y-92932380D02*
X133092676Y-93027618D01*
X133092676Y-93027618D02*
X133187914Y-93122856D01*
X133187914Y-93122856D02*
X133235533Y-93218094D01*
X127469819Y-94146666D02*
X126993628Y-94479999D01*
X127469819Y-94718094D02*
X126469819Y-94718094D01*
X126469819Y-94718094D02*
X126469819Y-94337142D01*
X126469819Y-94337142D02*
X126517438Y-94241904D01*
X126517438Y-94241904D02*
X126565057Y-94194285D01*
X126565057Y-94194285D02*
X126660295Y-94146666D01*
X126660295Y-94146666D02*
X126803152Y-94146666D01*
X126803152Y-94146666D02*
X126898390Y-94194285D01*
X126898390Y-94194285D02*
X126946009Y-94241904D01*
X126946009Y-94241904D02*
X126993628Y-94337142D01*
X126993628Y-94337142D02*
X126993628Y-94718094D01*
X127469819Y-93194285D02*
X127469819Y-93765713D01*
X127469819Y-93479999D02*
X126469819Y-93479999D01*
X126469819Y-93479999D02*
X126612676Y-93575237D01*
X126612676Y-93575237D02*
X126707914Y-93670475D01*
X126707914Y-93670475D02*
X126755533Y-93765713D01*
X115466905Y-92529819D02*
X115466905Y-91529819D01*
X115466905Y-91529819D02*
X115705000Y-91529819D01*
X115705000Y-91529819D02*
X115847857Y-91577438D01*
X115847857Y-91577438D02*
X115943095Y-91672676D01*
X115943095Y-91672676D02*
X115990714Y-91767914D01*
X115990714Y-91767914D02*
X116038333Y-91958390D01*
X116038333Y-91958390D02*
X116038333Y-92101247D01*
X116038333Y-92101247D02*
X115990714Y-92291723D01*
X115990714Y-92291723D02*
X115943095Y-92386961D01*
X115943095Y-92386961D02*
X115847857Y-92482200D01*
X115847857Y-92482200D02*
X115705000Y-92529819D01*
X115705000Y-92529819D02*
X115466905Y-92529819D01*
X116990714Y-92529819D02*
X116419286Y-92529819D01*
X116705000Y-92529819D02*
X116705000Y-91529819D01*
X116705000Y-91529819D02*
X116609762Y-91672676D01*
X116609762Y-91672676D02*
X116514524Y-91767914D01*
X116514524Y-91767914D02*
X116419286Y-91815533D01*
D11*
%TO.C,BT1*%
X150155000Y-90370000D02*
X153773000Y-90370000D01*
X150155000Y-92080000D02*
X150155000Y-90370000D01*
X150155000Y-95880000D02*
X150155000Y-97590000D01*
X153773000Y-97590000D02*
X150155000Y-97590000D01*
X156617700Y-85870000D02*
X172312300Y-85870000D01*
X160605000Y-102090000D02*
X156617700Y-102090000D01*
X162805000Y-99890000D02*
X160605000Y-102090000D01*
X166125000Y-99890000D02*
X162805000Y-99890000D01*
X166125000Y-99890000D02*
X168325000Y-102090000D01*
X172312300Y-102090000D02*
X168325000Y-102090000D01*
X175157000Y-90370000D02*
X178775000Y-90370000D01*
X178775000Y-92080000D02*
X178775000Y-90370000D01*
X178775000Y-95880000D02*
X178775000Y-97590000D01*
X178775000Y-97590000D02*
X175157000Y-97590000D01*
X156619629Y-85868211D02*
G75*
G03*
X153773001Y-90370000I7845391J-8111799D01*
G01*
X153773000Y-97590000D02*
G75*
G03*
X156619629Y-102091789I10691995J3609996D01*
G01*
X175157000Y-90370000D02*
G75*
G03*
X172310371Y-85868211I-10692000J-3610000D01*
G01*
X172310371Y-102091789D02*
G75*
G03*
X175157000Y-97590000I-7845391J8111801D01*
G01*
%TO.C,SW1*%
X138945000Y-97100000D02*
X136745000Y-97100000D01*
X140915000Y-96630000D02*
X140915000Y-91430000D01*
X134675000Y-96030000D02*
X134675000Y-91630000D01*
X136745000Y-90860000D02*
X138945000Y-90860000D01*
X139209214Y-93980000D02*
G75*
G03*
X139209214Y-93980000I-1414214J0D01*
G01*
%TO.C,R1*%
X124175000Y-92060000D02*
X124175000Y-95900000D01*
X126015000Y-92060000D02*
X126015000Y-95900000D01*
%TO.C,D1*%
X122580000Y-95525000D02*
X122580000Y-92435000D01*
X117030001Y-93979538D02*
G75*
G03*
X122579999Y-95524830I2989999J-462D01*
G01*
X122580000Y-92435170D02*
G75*
G03*
X117030000Y-93980462I-2560000J-1544830D01*
G01*
X122520000Y-93980000D02*
G75*
G03*
X122520000Y-93980000I-2500000J0D01*
G01*
%TD*%
M02*
