%TF.GenerationSoftware,KiCad,Pcbnew,7.0.7-7.0.7~ubuntu22.04.1*%
%TF.CreationDate,2023-10-30T13:20:32-04:00*%
%TF.ProjectId,kicad_led_torch,6b696361-645f-46c6-9564-5f746f726368,0.1*%
%TF.SameCoordinates,Original*%
%TF.FileFunction,Legend,Bot*%
%TF.FilePolarity,Positive*%
%FSLAX46Y46*%
G04 Gerber Fmt 4.6, Leading zero omitted, Abs format (unit mm)*
G04 Created by KiCad (PCBNEW 7.0.7-7.0.7~ubuntu22.04.1) date 2023-10-30 13:20:32*
%MOMM*%
%LPD*%
G01*
G04 APERTURE LIST*
%ADD10C,0.150000*%
%ADD11C,0.010000*%
G04 APERTURE END LIST*
D10*
X165493458Y-89373152D02*
X165255363Y-90039819D01*
X165255363Y-90039819D02*
X165017268Y-89373152D01*
X164112506Y-90039819D02*
X164683934Y-90039819D01*
X164398220Y-90039819D02*
X164398220Y-89039819D01*
X164398220Y-89039819D02*
X164493458Y-89182676D01*
X164493458Y-89182676D02*
X164588696Y-89277914D01*
X164588696Y-89277914D02*
X164683934Y-89325533D01*
X163683934Y-89944580D02*
X163636315Y-89992200D01*
X163636315Y-89992200D02*
X163683934Y-90039819D01*
X163683934Y-90039819D02*
X163731553Y-89992200D01*
X163731553Y-89992200D02*
X163683934Y-89944580D01*
X163683934Y-89944580D02*
X163683934Y-90039819D01*
X163017268Y-89039819D02*
X162922030Y-89039819D01*
X162922030Y-89039819D02*
X162826792Y-89087438D01*
X162826792Y-89087438D02*
X162779173Y-89135057D01*
X162779173Y-89135057D02*
X162731554Y-89230295D01*
X162731554Y-89230295D02*
X162683935Y-89420771D01*
X162683935Y-89420771D02*
X162683935Y-89658866D01*
X162683935Y-89658866D02*
X162731554Y-89849342D01*
X162731554Y-89849342D02*
X162779173Y-89944580D01*
X162779173Y-89944580D02*
X162826792Y-89992200D01*
X162826792Y-89992200D02*
X162922030Y-90039819D01*
X162922030Y-90039819D02*
X163017268Y-90039819D01*
X163017268Y-90039819D02*
X163112506Y-89992200D01*
X163112506Y-89992200D02*
X163160125Y-89944580D01*
X163160125Y-89944580D02*
X163207744Y-89849342D01*
X163207744Y-89849342D02*
X163255363Y-89658866D01*
X163255363Y-89658866D02*
X163255363Y-89420771D01*
X163255363Y-89420771D02*
X163207744Y-89230295D01*
X163207744Y-89230295D02*
X163160125Y-89135057D01*
X163160125Y-89135057D02*
X163112506Y-89087438D01*
X163112506Y-89087438D02*
X163017268Y-89039819D01*
%TO.C,REF\u002A\u002A*%
D11*
X160650994Y-94222711D02*
X160650268Y-94300158D01*
X160641689Y-94451594D01*
X160622833Y-94588283D01*
X160592837Y-94714276D01*
X160550836Y-94833625D01*
X160495969Y-94950381D01*
X160429167Y-95061179D01*
X160338363Y-95174739D01*
X160234708Y-95270211D01*
X160118887Y-95347073D01*
X159991586Y-95404797D01*
X159853489Y-95442858D01*
X159815793Y-95448666D01*
X159736752Y-95454396D01*
X159648629Y-95454583D01*
X159559236Y-95449539D01*
X159476384Y-95439578D01*
X159407887Y-95425012D01*
X159377035Y-95415364D01*
X159299730Y-95385123D01*
X159222679Y-95347617D01*
X159153200Y-95306614D01*
X159098615Y-95265879D01*
X159075916Y-95246505D01*
X159053201Y-95228662D01*
X159041779Y-95221778D01*
X159040537Y-95223424D01*
X159037728Y-95241205D01*
X159035776Y-95274370D01*
X159035045Y-95317733D01*
X159035045Y-95413689D01*
X158176896Y-95413689D01*
X158211161Y-95352974D01*
X158216355Y-95343868D01*
X158224715Y-95329249D01*
X158232288Y-95315173D01*
X158239112Y-95300540D01*
X158245227Y-95284249D01*
X158250673Y-95265198D01*
X158255487Y-95242286D01*
X158259708Y-95214413D01*
X158263377Y-95180478D01*
X158266531Y-95139379D01*
X158269211Y-95090015D01*
X158271454Y-95031286D01*
X158273299Y-94962090D01*
X158274787Y-94881326D01*
X158275955Y-94787894D01*
X158276678Y-94700721D01*
X159080200Y-94700721D01*
X159150756Y-94747089D01*
X159191417Y-94770791D01*
X159245546Y-94796639D01*
X159294689Y-94814829D01*
X159358165Y-94830551D01*
X159454331Y-94841541D01*
X159538900Y-94833365D01*
X159612219Y-94805805D01*
X159674637Y-94758642D01*
X159726502Y-94691658D01*
X159768160Y-94604633D01*
X159799962Y-94497350D01*
X159802545Y-94485009D01*
X159811000Y-94423772D01*
X159816663Y-94346692D01*
X159819576Y-94259002D01*
X159819783Y-94165934D01*
X159817330Y-94072720D01*
X159812261Y-93984594D01*
X159804619Y-93906788D01*
X159794448Y-93844533D01*
X159793167Y-93838666D01*
X159764126Y-93728121D01*
X159729610Y-93637575D01*
X159688456Y-93564953D01*
X159639499Y-93508181D01*
X159581574Y-93465184D01*
X159549620Y-93449615D01*
X159476784Y-93430722D01*
X159395443Y-93427465D01*
X159310319Y-93439389D01*
X159226133Y-93466040D01*
X159147608Y-93506962D01*
X159080200Y-93550530D01*
X159080200Y-94700721D01*
X158276678Y-94700721D01*
X158276844Y-94680692D01*
X158277491Y-94558620D01*
X158277936Y-94420576D01*
X158278218Y-94265459D01*
X158278375Y-94092168D01*
X158278448Y-93899603D01*
X158278474Y-93686662D01*
X158278493Y-93452245D01*
X158278689Y-91767378D01*
X159184017Y-91767378D01*
X159159585Y-91804067D01*
X159153318Y-91813647D01*
X159127208Y-91859981D01*
X159109469Y-91907102D01*
X159097908Y-91962251D01*
X159090331Y-92032667D01*
X159089839Y-92039650D01*
X159088062Y-92077641D01*
X159086444Y-92131576D01*
X159084999Y-92198703D01*
X159083740Y-92276271D01*
X159082680Y-92361528D01*
X159081829Y-92451724D01*
X159081203Y-92544107D01*
X159080812Y-92635925D01*
X159080670Y-92724427D01*
X159080790Y-92806862D01*
X159081183Y-92880479D01*
X159081862Y-92942526D01*
X159082841Y-92990251D01*
X159084132Y-93020904D01*
X159085747Y-93031733D01*
X159093957Y-93027333D01*
X159115647Y-93012362D01*
X159145014Y-92990448D01*
X159193879Y-92956236D01*
X159282125Y-92909714D01*
X159380916Y-92876046D01*
X159493510Y-92854231D01*
X159623164Y-92843265D01*
X159715670Y-92842219D01*
X159837011Y-92852014D01*
X159947099Y-92876174D01*
X160050389Y-92915785D01*
X160151338Y-92971932D01*
X160196503Y-93002883D01*
X160301911Y-93094115D01*
X160393538Y-93203106D01*
X160471332Y-93329726D01*
X160535241Y-93473845D01*
X160585214Y-93635332D01*
X160621198Y-93814059D01*
X160643143Y-94009895D01*
X160648900Y-94165934D01*
X160650994Y-94222711D01*
G36*
X160650994Y-94222711D02*
G01*
X160650268Y-94300158D01*
X160641689Y-94451594D01*
X160622833Y-94588283D01*
X160592837Y-94714276D01*
X160550836Y-94833625D01*
X160495969Y-94950381D01*
X160429167Y-95061179D01*
X160338363Y-95174739D01*
X160234708Y-95270211D01*
X160118887Y-95347073D01*
X159991586Y-95404797D01*
X159853489Y-95442858D01*
X159815793Y-95448666D01*
X159736752Y-95454396D01*
X159648629Y-95454583D01*
X159559236Y-95449539D01*
X159476384Y-95439578D01*
X159407887Y-95425012D01*
X159377035Y-95415364D01*
X159299730Y-95385123D01*
X159222679Y-95347617D01*
X159153200Y-95306614D01*
X159098615Y-95265879D01*
X159075916Y-95246505D01*
X159053201Y-95228662D01*
X159041779Y-95221778D01*
X159040537Y-95223424D01*
X159037728Y-95241205D01*
X159035776Y-95274370D01*
X159035045Y-95317733D01*
X159035045Y-95413689D01*
X158176896Y-95413689D01*
X158211161Y-95352974D01*
X158216355Y-95343868D01*
X158224715Y-95329249D01*
X158232288Y-95315173D01*
X158239112Y-95300540D01*
X158245227Y-95284249D01*
X158250673Y-95265198D01*
X158255487Y-95242286D01*
X158259708Y-95214413D01*
X158263377Y-95180478D01*
X158266531Y-95139379D01*
X158269211Y-95090015D01*
X158271454Y-95031286D01*
X158273299Y-94962090D01*
X158274787Y-94881326D01*
X158275955Y-94787894D01*
X158276678Y-94700721D01*
X159080200Y-94700721D01*
X159150756Y-94747089D01*
X159191417Y-94770791D01*
X159245546Y-94796639D01*
X159294689Y-94814829D01*
X159358165Y-94830551D01*
X159454331Y-94841541D01*
X159538900Y-94833365D01*
X159612219Y-94805805D01*
X159674637Y-94758642D01*
X159726502Y-94691658D01*
X159768160Y-94604633D01*
X159799962Y-94497350D01*
X159802545Y-94485009D01*
X159811000Y-94423772D01*
X159816663Y-94346692D01*
X159819576Y-94259002D01*
X159819783Y-94165934D01*
X159817330Y-94072720D01*
X159812261Y-93984594D01*
X159804619Y-93906788D01*
X159794448Y-93844533D01*
X159793167Y-93838666D01*
X159764126Y-93728121D01*
X159729610Y-93637575D01*
X159688456Y-93564953D01*
X159639499Y-93508181D01*
X159581574Y-93465184D01*
X159549620Y-93449615D01*
X159476784Y-93430722D01*
X159395443Y-93427465D01*
X159310319Y-93439389D01*
X159226133Y-93466040D01*
X159147608Y-93506962D01*
X159080200Y-93550530D01*
X159080200Y-94700721D01*
X158276678Y-94700721D01*
X158276844Y-94680692D01*
X158277491Y-94558620D01*
X158277936Y-94420576D01*
X158278218Y-94265459D01*
X158278375Y-94092168D01*
X158278448Y-93899603D01*
X158278474Y-93686662D01*
X158278493Y-93452245D01*
X158278689Y-91767378D01*
X159184017Y-91767378D01*
X159159585Y-91804067D01*
X159153318Y-91813647D01*
X159127208Y-91859981D01*
X159109469Y-91907102D01*
X159097908Y-91962251D01*
X159090331Y-92032667D01*
X159089839Y-92039650D01*
X159088062Y-92077641D01*
X159086444Y-92131576D01*
X159084999Y-92198703D01*
X159083740Y-92276271D01*
X159082680Y-92361528D01*
X159081829Y-92451724D01*
X159081203Y-92544107D01*
X159080812Y-92635925D01*
X159080670Y-92724427D01*
X159080790Y-92806862D01*
X159081183Y-92880479D01*
X159081862Y-92942526D01*
X159082841Y-92990251D01*
X159084132Y-93020904D01*
X159085747Y-93031733D01*
X159093957Y-93027333D01*
X159115647Y-93012362D01*
X159145014Y-92990448D01*
X159193879Y-92956236D01*
X159282125Y-92909714D01*
X159380916Y-92876046D01*
X159493510Y-92854231D01*
X159623164Y-92843265D01*
X159715670Y-92842219D01*
X159837011Y-92852014D01*
X159947099Y-92876174D01*
X160050389Y-92915785D01*
X160151338Y-92971932D01*
X160196503Y-93002883D01*
X160301911Y-93094115D01*
X160393538Y-93203106D01*
X160471332Y-93329726D01*
X160535241Y-93473845D01*
X160585214Y-93635332D01*
X160621198Y-93814059D01*
X160643143Y-94009895D01*
X160648900Y-94165934D01*
X160650994Y-94222711D01*
G37*
X159620767Y-96249068D02*
X159714890Y-96249158D01*
X159789405Y-96249498D01*
X159846811Y-96250239D01*
X159889611Y-96251535D01*
X159920304Y-96253537D01*
X159941391Y-96256396D01*
X159955373Y-96260266D01*
X159964750Y-96265298D01*
X159972022Y-96271645D01*
X159990828Y-96304362D01*
X159992275Y-96341939D01*
X159975917Y-96375178D01*
X159974557Y-96376631D01*
X159963354Y-96384992D01*
X159946252Y-96390547D01*
X159919082Y-96393840D01*
X159877678Y-96395418D01*
X159817873Y-96395822D01*
X159678511Y-96395822D01*
X159678511Y-96659589D01*
X159678436Y-96735417D01*
X159678028Y-96802083D01*
X159677046Y-96851867D01*
X159675250Y-96887784D01*
X159672399Y-96912850D01*
X159668253Y-96930081D01*
X159662571Y-96942492D01*
X159655114Y-96953100D01*
X159652824Y-96955906D01*
X159621646Y-96978548D01*
X159587266Y-96980112D01*
X159554334Y-96960267D01*
X159547355Y-96952191D01*
X159541883Y-96941593D01*
X159537863Y-96925749D01*
X159535072Y-96901773D01*
X159533288Y-96866774D01*
X159532289Y-96817864D01*
X159531852Y-96752154D01*
X159531756Y-96666756D01*
X159531756Y-96395822D01*
X159385820Y-96395822D01*
X159374720Y-96395821D01*
X159318202Y-96395596D01*
X159279358Y-96394457D01*
X159253965Y-96391657D01*
X159237804Y-96386450D01*
X159226652Y-96378089D01*
X159216289Y-96365826D01*
X159200441Y-96335138D01*
X159203543Y-96301358D01*
X159229187Y-96268822D01*
X159234129Y-96265105D01*
X159244338Y-96260269D01*
X159259764Y-96256506D01*
X159282886Y-96253683D01*
X159316183Y-96251670D01*
X159362137Y-96250333D01*
X159423228Y-96249542D01*
X159501935Y-96249163D01*
X159600740Y-96249067D01*
X159620767Y-96249068D01*
G36*
X159620767Y-96249068D02*
G01*
X159714890Y-96249158D01*
X159789405Y-96249498D01*
X159846811Y-96250239D01*
X159889611Y-96251535D01*
X159920304Y-96253537D01*
X159941391Y-96256396D01*
X159955373Y-96260266D01*
X159964750Y-96265298D01*
X159972022Y-96271645D01*
X159990828Y-96304362D01*
X159992275Y-96341939D01*
X159975917Y-96375178D01*
X159974557Y-96376631D01*
X159963354Y-96384992D01*
X159946252Y-96390547D01*
X159919082Y-96393840D01*
X159877678Y-96395418D01*
X159817873Y-96395822D01*
X159678511Y-96395822D01*
X159678511Y-96659589D01*
X159678436Y-96735417D01*
X159678028Y-96802083D01*
X159677046Y-96851867D01*
X159675250Y-96887784D01*
X159672399Y-96912850D01*
X159668253Y-96930081D01*
X159662571Y-96942492D01*
X159655114Y-96953100D01*
X159652824Y-96955906D01*
X159621646Y-96978548D01*
X159587266Y-96980112D01*
X159554334Y-96960267D01*
X159547355Y-96952191D01*
X159541883Y-96941593D01*
X159537863Y-96925749D01*
X159535072Y-96901773D01*
X159533288Y-96866774D01*
X159532289Y-96817864D01*
X159531852Y-96752154D01*
X159531756Y-96666756D01*
X159531756Y-96395822D01*
X159385820Y-96395822D01*
X159374720Y-96395821D01*
X159318202Y-96395596D01*
X159279358Y-96394457D01*
X159253965Y-96391657D01*
X159237804Y-96386450D01*
X159226652Y-96378089D01*
X159216289Y-96365826D01*
X159200441Y-96335138D01*
X159203543Y-96301358D01*
X159229187Y-96268822D01*
X159234129Y-96265105D01*
X159244338Y-96260269D01*
X159259764Y-96256506D01*
X159282886Y-96253683D01*
X159316183Y-96251670D01*
X159362137Y-96250333D01*
X159423228Y-96249542D01*
X159501935Y-96249163D01*
X159600740Y-96249067D01*
X159620767Y-96249068D01*
G37*
X170741817Y-96434427D02*
X170741870Y-96515041D01*
X170741622Y-96615956D01*
X170741583Y-96691617D01*
X170741328Y-96769526D01*
X170740684Y-96829536D01*
X170739480Y-96874264D01*
X170737543Y-96906326D01*
X170734703Y-96928340D01*
X170730788Y-96942924D01*
X170725626Y-96952694D01*
X170719045Y-96960267D01*
X170712077Y-96966501D01*
X170699079Y-96973801D01*
X170679931Y-96978554D01*
X170650528Y-96981292D01*
X170606762Y-96982545D01*
X170544528Y-96982845D01*
X170495582Y-96982469D01*
X170388722Y-96978041D01*
X170299494Y-96967953D01*
X170224696Y-96951365D01*
X170161125Y-96927435D01*
X170105579Y-96895321D01*
X170054854Y-96854182D01*
X170048866Y-96848330D01*
X170011999Y-96799821D01*
X169980899Y-96739013D01*
X169959417Y-96674769D01*
X169954136Y-96636026D01*
X170101353Y-96636026D01*
X170119635Y-96686961D01*
X170149305Y-96732878D01*
X170196002Y-96775287D01*
X170257392Y-96805090D01*
X170336538Y-96824226D01*
X170338028Y-96824464D01*
X170386999Y-96830256D01*
X170445693Y-96834396D01*
X170501734Y-96836004D01*
X170594867Y-96836089D01*
X170594867Y-96395822D01*
X170518667Y-96395808D01*
X170515639Y-96395817D01*
X170464519Y-96397782D01*
X170404416Y-96402507D01*
X170347708Y-96409035D01*
X170297750Y-96418331D01*
X170222998Y-96444600D01*
X170165489Y-96483899D01*
X170123988Y-96536933D01*
X170102771Y-96588200D01*
X170101353Y-96636026D01*
X169954136Y-96636026D01*
X169951400Y-96615956D01*
X169952679Y-96594739D01*
X169964991Y-96537323D01*
X169987520Y-96477413D01*
X170016750Y-96423363D01*
X170049167Y-96383532D01*
X170068708Y-96366510D01*
X170123420Y-96327322D01*
X170183723Y-96297193D01*
X170252919Y-96275232D01*
X170334311Y-96260550D01*
X170431200Y-96252259D01*
X170546889Y-96249467D01*
X170586371Y-96249066D01*
X170632082Y-96248653D01*
X170667883Y-96250457D01*
X170694974Y-96256739D01*
X170714556Y-96269759D01*
X170727830Y-96291778D01*
X170735998Y-96325055D01*
X170740260Y-96371851D01*
X170740857Y-96395822D01*
X170741817Y-96434427D01*
G36*
X170741817Y-96434427D02*
G01*
X170741870Y-96515041D01*
X170741622Y-96615956D01*
X170741583Y-96691617D01*
X170741328Y-96769526D01*
X170740684Y-96829536D01*
X170739480Y-96874264D01*
X170737543Y-96906326D01*
X170734703Y-96928340D01*
X170730788Y-96942924D01*
X170725626Y-96952694D01*
X170719045Y-96960267D01*
X170712077Y-96966501D01*
X170699079Y-96973801D01*
X170679931Y-96978554D01*
X170650528Y-96981292D01*
X170606762Y-96982545D01*
X170544528Y-96982845D01*
X170495582Y-96982469D01*
X170388722Y-96978041D01*
X170299494Y-96967953D01*
X170224696Y-96951365D01*
X170161125Y-96927435D01*
X170105579Y-96895321D01*
X170054854Y-96854182D01*
X170048866Y-96848330D01*
X170011999Y-96799821D01*
X169980899Y-96739013D01*
X169959417Y-96674769D01*
X169954136Y-96636026D01*
X170101353Y-96636026D01*
X170119635Y-96686961D01*
X170149305Y-96732878D01*
X170196002Y-96775287D01*
X170257392Y-96805090D01*
X170336538Y-96824226D01*
X170338028Y-96824464D01*
X170386999Y-96830256D01*
X170445693Y-96834396D01*
X170501734Y-96836004D01*
X170594867Y-96836089D01*
X170594867Y-96395822D01*
X170518667Y-96395808D01*
X170515639Y-96395817D01*
X170464519Y-96397782D01*
X170404416Y-96402507D01*
X170347708Y-96409035D01*
X170297750Y-96418331D01*
X170222998Y-96444600D01*
X170165489Y-96483899D01*
X170123988Y-96536933D01*
X170102771Y-96588200D01*
X170101353Y-96636026D01*
X169954136Y-96636026D01*
X169951400Y-96615956D01*
X169952679Y-96594739D01*
X169964991Y-96537323D01*
X169987520Y-96477413D01*
X170016750Y-96423363D01*
X170049167Y-96383532D01*
X170068708Y-96366510D01*
X170123420Y-96327322D01*
X170183723Y-96297193D01*
X170252919Y-96275232D01*
X170334311Y-96260550D01*
X170431200Y-96252259D01*
X170546889Y-96249467D01*
X170586371Y-96249066D01*
X170632082Y-96248653D01*
X170667883Y-96250457D01*
X170694974Y-96256739D01*
X170714556Y-96269759D01*
X170727830Y-96291778D01*
X170735998Y-96325055D01*
X170740260Y-96371851D01*
X170740857Y-96395822D01*
X170741817Y-96434427D01*
G37*
X160754702Y-96258478D02*
X160772663Y-96276989D01*
X160793263Y-96308071D01*
X160818095Y-96353756D01*
X160848750Y-96416078D01*
X160886820Y-96497071D01*
X160901454Y-96528454D01*
X160931203Y-96591638D01*
X160957297Y-96646244D01*
X160978292Y-96689290D01*
X160992739Y-96717793D01*
X160999191Y-96728770D01*
X161000550Y-96728189D01*
X161010542Y-96714242D01*
X161027833Y-96684704D01*
X161050430Y-96643087D01*
X161076338Y-96592903D01*
X161092311Y-96561414D01*
X161121261Y-96506061D01*
X161143749Y-96467044D01*
X161161965Y-96441566D01*
X161178096Y-96426831D01*
X161194330Y-96420042D01*
X161212857Y-96418400D01*
X161223360Y-96418875D01*
X161239476Y-96423082D01*
X161254790Y-96433946D01*
X161271388Y-96454219D01*
X161291357Y-96486654D01*
X161316783Y-96534004D01*
X161349752Y-96599022D01*
X161359485Y-96618277D01*
X161383943Y-96664946D01*
X161404178Y-96701109D01*
X161418311Y-96723497D01*
X161424460Y-96728845D01*
X161425827Y-96725573D01*
X161435202Y-96704664D01*
X161452062Y-96667725D01*
X161474979Y-96617874D01*
X161502520Y-96558226D01*
X161533255Y-96491898D01*
X161559970Y-96434677D01*
X161589593Y-96372688D01*
X161612664Y-96326949D01*
X161630643Y-96294908D01*
X161644990Y-96274014D01*
X161657166Y-96261718D01*
X161668632Y-96255466D01*
X161678042Y-96252574D01*
X161703147Y-96252425D01*
X161730290Y-96267768D01*
X161731590Y-96268753D01*
X161753674Y-96291388D01*
X161764723Y-96313613D01*
X161764769Y-96314253D01*
X161760228Y-96331915D01*
X161747364Y-96366481D01*
X161727605Y-96414826D01*
X161702381Y-96473825D01*
X161673119Y-96540355D01*
X161641250Y-96611291D01*
X161608201Y-96683507D01*
X161575401Y-96753880D01*
X161544280Y-96819285D01*
X161516265Y-96876597D01*
X161492786Y-96922692D01*
X161475272Y-96954446D01*
X161465151Y-96968733D01*
X161430743Y-96982102D01*
X161389046Y-96975741D01*
X161383681Y-96971044D01*
X161367852Y-96948893D01*
X161345650Y-96912132D01*
X161319233Y-96864415D01*
X161290760Y-96809393D01*
X161210986Y-96650150D01*
X161137799Y-96796742D01*
X161128103Y-96816032D01*
X161101125Y-96868380D01*
X161077096Y-96913170D01*
X161058332Y-96946154D01*
X161047146Y-96963089D01*
X161046000Y-96964332D01*
X161017879Y-96979619D01*
X160982817Y-96981302D01*
X160951776Y-96968733D01*
X160949350Y-96965884D01*
X160937090Y-96945259D01*
X160917352Y-96907708D01*
X160891448Y-96855880D01*
X160860685Y-96792423D01*
X160826375Y-96719985D01*
X160789825Y-96641216D01*
X160769585Y-96597093D01*
X160732812Y-96516365D01*
X160704355Y-96452687D01*
X160683331Y-96403752D01*
X160668854Y-96367257D01*
X160660039Y-96340895D01*
X160656004Y-96322361D01*
X160655862Y-96309352D01*
X160658730Y-96299561D01*
X160673387Y-96278678D01*
X160699990Y-96258377D01*
X160700745Y-96258035D01*
X160720335Y-96251034D01*
X160737790Y-96250504D01*
X160754702Y-96258478D01*
G36*
X160754702Y-96258478D02*
G01*
X160772663Y-96276989D01*
X160793263Y-96308071D01*
X160818095Y-96353756D01*
X160848750Y-96416078D01*
X160886820Y-96497071D01*
X160901454Y-96528454D01*
X160931203Y-96591638D01*
X160957297Y-96646244D01*
X160978292Y-96689290D01*
X160992739Y-96717793D01*
X160999191Y-96728770D01*
X161000550Y-96728189D01*
X161010542Y-96714242D01*
X161027833Y-96684704D01*
X161050430Y-96643087D01*
X161076338Y-96592903D01*
X161092311Y-96561414D01*
X161121261Y-96506061D01*
X161143749Y-96467044D01*
X161161965Y-96441566D01*
X161178096Y-96426831D01*
X161194330Y-96420042D01*
X161212857Y-96418400D01*
X161223360Y-96418875D01*
X161239476Y-96423082D01*
X161254790Y-96433946D01*
X161271388Y-96454219D01*
X161291357Y-96486654D01*
X161316783Y-96534004D01*
X161349752Y-96599022D01*
X161359485Y-96618277D01*
X161383943Y-96664946D01*
X161404178Y-96701109D01*
X161418311Y-96723497D01*
X161424460Y-96728845D01*
X161425827Y-96725573D01*
X161435202Y-96704664D01*
X161452062Y-96667725D01*
X161474979Y-96617874D01*
X161502520Y-96558226D01*
X161533255Y-96491898D01*
X161559970Y-96434677D01*
X161589593Y-96372688D01*
X161612664Y-96326949D01*
X161630643Y-96294908D01*
X161644990Y-96274014D01*
X161657166Y-96261718D01*
X161668632Y-96255466D01*
X161678042Y-96252574D01*
X161703147Y-96252425D01*
X161730290Y-96267768D01*
X161731590Y-96268753D01*
X161753674Y-96291388D01*
X161764723Y-96313613D01*
X161764769Y-96314253D01*
X161760228Y-96331915D01*
X161747364Y-96366481D01*
X161727605Y-96414826D01*
X161702381Y-96473825D01*
X161673119Y-96540355D01*
X161641250Y-96611291D01*
X161608201Y-96683507D01*
X161575401Y-96753880D01*
X161544280Y-96819285D01*
X161516265Y-96876597D01*
X161492786Y-96922692D01*
X161475272Y-96954446D01*
X161465151Y-96968733D01*
X161430743Y-96982102D01*
X161389046Y-96975741D01*
X161383681Y-96971044D01*
X161367852Y-96948893D01*
X161345650Y-96912132D01*
X161319233Y-96864415D01*
X161290760Y-96809393D01*
X161210986Y-96650150D01*
X161137799Y-96796742D01*
X161128103Y-96816032D01*
X161101125Y-96868380D01*
X161077096Y-96913170D01*
X161058332Y-96946154D01*
X161047146Y-96963089D01*
X161046000Y-96964332D01*
X161017879Y-96979619D01*
X160982817Y-96981302D01*
X160951776Y-96968733D01*
X160949350Y-96965884D01*
X160937090Y-96945259D01*
X160917352Y-96907708D01*
X160891448Y-96855880D01*
X160860685Y-96792423D01*
X160826375Y-96719985D01*
X160789825Y-96641216D01*
X160769585Y-96597093D01*
X160732812Y-96516365D01*
X160704355Y-96452687D01*
X160683331Y-96403752D01*
X160668854Y-96367257D01*
X160660039Y-96340895D01*
X160656004Y-96322361D01*
X160655862Y-96309352D01*
X160658730Y-96299561D01*
X160673387Y-96278678D01*
X160699990Y-96258377D01*
X160700745Y-96258035D01*
X160720335Y-96251034D01*
X160737790Y-96250504D01*
X160754702Y-96258478D01*
G37*
X170740614Y-92091792D02*
X170741059Y-92223011D01*
X170741362Y-92370216D01*
X170741548Y-92534349D01*
X170741642Y-92716352D01*
X170741671Y-92917165D01*
X170741661Y-93137732D01*
X170741636Y-93378992D01*
X170741622Y-93641889D01*
X170741622Y-93684040D01*
X170741646Y-93944668D01*
X170741685Y-94183796D01*
X170741708Y-94402360D01*
X170741687Y-94601295D01*
X170741593Y-94781535D01*
X170741395Y-94944015D01*
X170741063Y-95089670D01*
X170740569Y-95219434D01*
X170739883Y-95334243D01*
X170738976Y-95435030D01*
X170737817Y-95522730D01*
X170736378Y-95598279D01*
X170734629Y-95662611D01*
X170732540Y-95716661D01*
X170730083Y-95761363D01*
X170727227Y-95797652D01*
X170723943Y-95826463D01*
X170720202Y-95848731D01*
X170715974Y-95865390D01*
X170711229Y-95877375D01*
X170705939Y-95885621D01*
X170700073Y-95891062D01*
X170693602Y-95894634D01*
X170686497Y-95897270D01*
X170678728Y-95899906D01*
X170670266Y-95903477D01*
X170665908Y-95905145D01*
X170657395Y-95907111D01*
X170644694Y-95908911D01*
X170626885Y-95910555D01*
X170603049Y-95912047D01*
X170572266Y-95913397D01*
X170533617Y-95914611D01*
X170486182Y-95915697D01*
X170429043Y-95916661D01*
X170361279Y-95917511D01*
X170281971Y-95918253D01*
X170190199Y-95918897D01*
X170085044Y-95919447D01*
X169965587Y-95919913D01*
X169830908Y-95920300D01*
X169680088Y-95920616D01*
X169512206Y-95920869D01*
X169326345Y-95921066D01*
X169121583Y-95921213D01*
X168897002Y-95921318D01*
X168651682Y-95921389D01*
X168384704Y-95921432D01*
X168346321Y-95921437D01*
X168080922Y-95921480D01*
X167837050Y-95921525D01*
X167613783Y-95921548D01*
X167410196Y-95921524D01*
X167225367Y-95921430D01*
X167058373Y-95921243D01*
X166908290Y-95920939D01*
X166774196Y-95920494D01*
X166655166Y-95919885D01*
X166550279Y-95919089D01*
X166458610Y-95918080D01*
X166379237Y-95916837D01*
X166311237Y-95915335D01*
X166253686Y-95913551D01*
X166205662Y-95911461D01*
X166166240Y-95909042D01*
X166134499Y-95906270D01*
X166109514Y-95903121D01*
X166090364Y-95899572D01*
X166076123Y-95895598D01*
X166065871Y-95891178D01*
X166058682Y-95886286D01*
X166053635Y-95880900D01*
X166049805Y-95874996D01*
X166046271Y-95868549D01*
X166042108Y-95861537D01*
X166041025Y-95859687D01*
X166038813Y-95854180D01*
X166036786Y-95845868D01*
X166034938Y-95833809D01*
X166033261Y-95817063D01*
X166031745Y-95794687D01*
X166030383Y-95765740D01*
X166029167Y-95729280D01*
X166028089Y-95684367D01*
X166027140Y-95630057D01*
X166026312Y-95565410D01*
X166025597Y-95489484D01*
X166024987Y-95401338D01*
X166024942Y-95392493D01*
X166316378Y-95392493D01*
X166320260Y-95393765D01*
X166343520Y-95395791D01*
X166385874Y-95397626D01*
X166445132Y-95399227D01*
X166519107Y-95400549D01*
X166605610Y-95401548D01*
X166702452Y-95402180D01*
X166807445Y-95402400D01*
X167505651Y-95402400D01*
X168660090Y-95402400D01*
X168659456Y-95326200D01*
X168660574Y-95284160D01*
X168666304Y-95248334D01*
X168678890Y-95210772D01*
X168700568Y-95162577D01*
X168703789Y-95155897D01*
X168729188Y-95106359D01*
X168755996Y-95058369D01*
X168778917Y-95021466D01*
X168783485Y-95014834D01*
X168805516Y-94983593D01*
X168837693Y-94938654D01*
X168878457Y-94882147D01*
X168926245Y-94816204D01*
X168979498Y-94742957D01*
X169036655Y-94664536D01*
X169096155Y-94583072D01*
X169156437Y-94500698D01*
X169215940Y-94419544D01*
X169273105Y-94341742D01*
X169326370Y-94269423D01*
X169374174Y-94204718D01*
X169414957Y-94149759D01*
X169447158Y-94106676D01*
X169469216Y-94077602D01*
X169479571Y-94064667D01*
X169484044Y-94060351D01*
X169488236Y-94058312D01*
X169491643Y-94060926D01*
X169494325Y-94069986D01*
X169496341Y-94087285D01*
X169497748Y-94114614D01*
X169498605Y-94153765D01*
X169498970Y-94206533D01*
X169498903Y-94274707D01*
X169498460Y-94360082D01*
X169497702Y-94464449D01*
X169496685Y-94589600D01*
X169496308Y-94634300D01*
X169495169Y-94755395D01*
X169493972Y-94856688D01*
X169492636Y-94940262D01*
X169491077Y-95008204D01*
X169489215Y-95062599D01*
X169486966Y-95105532D01*
X169484248Y-95139089D01*
X169480979Y-95165355D01*
X169477078Y-95186416D01*
X169472461Y-95204357D01*
X169464192Y-95230770D01*
X169440583Y-95292772D01*
X169414685Y-95345573D01*
X169389535Y-95382645D01*
X169388339Y-95384075D01*
X169386168Y-95388424D01*
X169388328Y-95392026D01*
X169396644Y-95394951D01*
X169412940Y-95397269D01*
X169439041Y-95399051D01*
X169476771Y-95400367D01*
X169527956Y-95401286D01*
X169594420Y-95401878D01*
X169677987Y-95402215D01*
X169780483Y-95402365D01*
X169903732Y-95402400D01*
X170435296Y-95402400D01*
X170396523Y-95344783D01*
X170390432Y-95335893D01*
X170379976Y-95321069D01*
X170370579Y-95307422D01*
X170362183Y-95293765D01*
X170354733Y-95278911D01*
X170348173Y-95261670D01*
X170342446Y-95240855D01*
X170337495Y-95215280D01*
X170333266Y-95183755D01*
X170329701Y-95145093D01*
X170326744Y-95098107D01*
X170324340Y-95041608D01*
X170322431Y-94974409D01*
X170320962Y-94895322D01*
X170319876Y-94803160D01*
X170319118Y-94696734D01*
X170318630Y-94574857D01*
X170318358Y-94436341D01*
X170318243Y-94279999D01*
X170318231Y-94104642D01*
X170318265Y-93909082D01*
X170318289Y-93692133D01*
X170318280Y-93569513D01*
X170318243Y-93364447D01*
X170318227Y-93180116D01*
X170318288Y-93015334D01*
X170318484Y-92868916D01*
X170318870Y-92739674D01*
X170319505Y-92626422D01*
X170320444Y-92527975D01*
X170321745Y-92443144D01*
X170323464Y-92370744D01*
X170325659Y-92309589D01*
X170328385Y-92258492D01*
X170331701Y-92216267D01*
X170335662Y-92181727D01*
X170340325Y-92153686D01*
X170345747Y-92130958D01*
X170351986Y-92112356D01*
X170359097Y-92096693D01*
X170367138Y-92082784D01*
X170376166Y-92069441D01*
X170386236Y-92055479D01*
X170397407Y-92039711D01*
X170437197Y-91981867D01*
X169377314Y-91981867D01*
X169415311Y-92044966D01*
X169429993Y-92070005D01*
X169444531Y-92097586D01*
X169456627Y-92125700D01*
X169466532Y-92156551D01*
X169474494Y-92192344D01*
X169480761Y-92235283D01*
X169485582Y-92287574D01*
X169489206Y-92351419D01*
X169491881Y-92429025D01*
X169493857Y-92522594D01*
X169495382Y-92634333D01*
X169496704Y-92766445D01*
X169497613Y-92886434D01*
X169498020Y-93003063D01*
X169497767Y-93098531D01*
X169496857Y-93172556D01*
X169495293Y-93224855D01*
X169493079Y-93255149D01*
X169490220Y-93263156D01*
X169487161Y-93259858D01*
X169469006Y-93238408D01*
X169439275Y-93201889D01*
X169399639Y-93152442D01*
X169351771Y-93092207D01*
X169297343Y-93023327D01*
X169238027Y-92947943D01*
X169175495Y-92868196D01*
X169111421Y-92786228D01*
X169047475Y-92704180D01*
X168985331Y-92624194D01*
X168926661Y-92548411D01*
X168873137Y-92478973D01*
X168826430Y-92418021D01*
X168788214Y-92367696D01*
X168760161Y-92330140D01*
X168743943Y-92307495D01*
X168698635Y-92235212D01*
X168658661Y-92155463D01*
X168637130Y-92087188D01*
X168633827Y-92029844D01*
X168639116Y-91981867D01*
X167507356Y-91982117D01*
X167546867Y-92012722D01*
X167556248Y-92020089D01*
X167619183Y-92074438D01*
X167687997Y-92142259D01*
X167764596Y-92225516D01*
X167850888Y-92326178D01*
X167868052Y-92346847D01*
X167908833Y-92396409D01*
X167958588Y-92457326D01*
X168015955Y-92527898D01*
X168079569Y-92606424D01*
X168148069Y-92691204D01*
X168220090Y-92780537D01*
X168294270Y-92872722D01*
X168309517Y-92891702D01*
X168369246Y-92966060D01*
X168443653Y-93058848D01*
X168516131Y-93149388D01*
X168585314Y-93235978D01*
X168649841Y-93316918D01*
X168708347Y-93390506D01*
X168759470Y-93455044D01*
X168801847Y-93508829D01*
X168834115Y-93550162D01*
X168854910Y-93577342D01*
X168862869Y-93588668D01*
X168861111Y-93592771D01*
X168848230Y-93613334D01*
X168823885Y-93649561D01*
X168789247Y-93699824D01*
X168745486Y-93762492D01*
X168693775Y-93835936D01*
X168635284Y-93918527D01*
X168571184Y-94008636D01*
X168502646Y-94104631D01*
X168430843Y-94204885D01*
X168356944Y-94307768D01*
X168282121Y-94411650D01*
X168207545Y-94514901D01*
X168134387Y-94615892D01*
X168063819Y-94712994D01*
X167997011Y-94804577D01*
X167935135Y-94889011D01*
X167879361Y-94964667D01*
X167830862Y-95029916D01*
X167790807Y-95083128D01*
X167760369Y-95122673D01*
X167739944Y-95148026D01*
X167693899Y-95202295D01*
X167643612Y-95258775D01*
X167596815Y-95308669D01*
X167505651Y-95402400D01*
X166807445Y-95402400D01*
X166876356Y-95402349D01*
X166974607Y-95402091D01*
X167064030Y-95401637D01*
X167142333Y-95401010D01*
X167207223Y-95400235D01*
X167256411Y-95399335D01*
X167287604Y-95398334D01*
X167298511Y-95397257D01*
X167297322Y-95394037D01*
X167287176Y-95376452D01*
X167270040Y-95350158D01*
X167261540Y-95337691D01*
X167252329Y-95323622D01*
X167244233Y-95309351D01*
X167237185Y-95293479D01*
X167231117Y-95274609D01*
X167225961Y-95251341D01*
X167221651Y-95222278D01*
X167218119Y-95186021D01*
X167215297Y-95141170D01*
X167213118Y-95086328D01*
X167211514Y-95020097D01*
X167210419Y-94941077D01*
X167209765Y-94847871D01*
X167209484Y-94739079D01*
X167209509Y-94613303D01*
X167209772Y-94469145D01*
X167210206Y-94305207D01*
X167210745Y-94120089D01*
X167211279Y-93941232D01*
X167211805Y-93782374D01*
X167212350Y-93643316D01*
X167212945Y-93522665D01*
X167213619Y-93419028D01*
X167214403Y-93331011D01*
X167215326Y-93257223D01*
X167216419Y-93196269D01*
X167217712Y-93146757D01*
X167219235Y-93107293D01*
X167221019Y-93076484D01*
X167223092Y-93052938D01*
X167225486Y-93035260D01*
X167228230Y-93022059D01*
X167231356Y-93011940D01*
X167234892Y-93003511D01*
X167238791Y-92995375D01*
X167258438Y-92958544D01*
X167277225Y-92928391D01*
X167278272Y-92926908D01*
X167292602Y-92904659D01*
X167298511Y-92891702D01*
X167297504Y-92891249D01*
X167280305Y-92889803D01*
X167243656Y-92888480D01*
X167189962Y-92887316D01*
X167121630Y-92886347D01*
X167041064Y-92885611D01*
X166950670Y-92885142D01*
X166852853Y-92884978D01*
X166407195Y-92884978D01*
X166404120Y-94061845D01*
X166401045Y-95238711D01*
X166374407Y-95297622D01*
X166362485Y-95322183D01*
X166345246Y-95352434D01*
X166332074Y-95369560D01*
X166324076Y-95377591D01*
X166316378Y-95392493D01*
X166024942Y-95392493D01*
X166024474Y-95300029D01*
X166024050Y-95184617D01*
X166023706Y-95054160D01*
X166023434Y-94907716D01*
X166023227Y-94744344D01*
X166023076Y-94563101D01*
X166022972Y-94363048D01*
X166022908Y-94143241D01*
X166022876Y-93902739D01*
X166022867Y-93640602D01*
X166022867Y-91449031D01*
X166061249Y-91410649D01*
X166088355Y-91386911D01*
X166115253Y-91375111D01*
X166151560Y-91372267D01*
X166203489Y-91372267D01*
X166203489Y-91460206D01*
X166205427Y-91510102D01*
X166224199Y-91620523D01*
X166261217Y-91721987D01*
X166314369Y-91813152D01*
X166381546Y-91892673D01*
X166460638Y-91959205D01*
X166549534Y-92011406D01*
X166646125Y-92047930D01*
X166748300Y-92067434D01*
X166853950Y-92068573D01*
X166960964Y-92050005D01*
X167067232Y-92010384D01*
X167164219Y-91952516D01*
X167249293Y-91877684D01*
X167318015Y-91789615D01*
X167368918Y-91690616D01*
X167400535Y-91582993D01*
X167411400Y-91469054D01*
X167411400Y-91372267D01*
X169031753Y-91372267D01*
X169242897Y-91372280D01*
X169447020Y-91372330D01*
X169630686Y-91372430D01*
X169794991Y-91372592D01*
X169941029Y-91372829D01*
X170069894Y-91373153D01*
X170182683Y-91373575D01*
X170280488Y-91374109D01*
X170364404Y-91374767D01*
X170435527Y-91375561D01*
X170494950Y-91376504D01*
X170543768Y-91377608D01*
X170583077Y-91378884D01*
X170613969Y-91380347D01*
X170637541Y-91382007D01*
X170654886Y-91383878D01*
X170667099Y-91385972D01*
X170675275Y-91388300D01*
X170680508Y-91390876D01*
X170686504Y-91394445D01*
X170693279Y-91397978D01*
X170699478Y-91401488D01*
X170705126Y-91405918D01*
X170710247Y-91412208D01*
X170714869Y-91421301D01*
X170719015Y-91434139D01*
X170722713Y-91451662D01*
X170725987Y-91474813D01*
X170728863Y-91504534D01*
X170731367Y-91541765D01*
X170733524Y-91587449D01*
X170735360Y-91642527D01*
X170736900Y-91707941D01*
X170738170Y-91784633D01*
X170739195Y-91873544D01*
X170740001Y-91975617D01*
X170740034Y-91981867D01*
X170740614Y-92091792D01*
G36*
X170740614Y-92091792D02*
G01*
X170741059Y-92223011D01*
X170741362Y-92370216D01*
X170741548Y-92534349D01*
X170741642Y-92716352D01*
X170741671Y-92917165D01*
X170741661Y-93137732D01*
X170741636Y-93378992D01*
X170741622Y-93641889D01*
X170741622Y-93684040D01*
X170741646Y-93944668D01*
X170741685Y-94183796D01*
X170741708Y-94402360D01*
X170741687Y-94601295D01*
X170741593Y-94781535D01*
X170741395Y-94944015D01*
X170741063Y-95089670D01*
X170740569Y-95219434D01*
X170739883Y-95334243D01*
X170738976Y-95435030D01*
X170737817Y-95522730D01*
X170736378Y-95598279D01*
X170734629Y-95662611D01*
X170732540Y-95716661D01*
X170730083Y-95761363D01*
X170727227Y-95797652D01*
X170723943Y-95826463D01*
X170720202Y-95848731D01*
X170715974Y-95865390D01*
X170711229Y-95877375D01*
X170705939Y-95885621D01*
X170700073Y-95891062D01*
X170693602Y-95894634D01*
X170686497Y-95897270D01*
X170678728Y-95899906D01*
X170670266Y-95903477D01*
X170665908Y-95905145D01*
X170657395Y-95907111D01*
X170644694Y-95908911D01*
X170626885Y-95910555D01*
X170603049Y-95912047D01*
X170572266Y-95913397D01*
X170533617Y-95914611D01*
X170486182Y-95915697D01*
X170429043Y-95916661D01*
X170361279Y-95917511D01*
X170281971Y-95918253D01*
X170190199Y-95918897D01*
X170085044Y-95919447D01*
X169965587Y-95919913D01*
X169830908Y-95920300D01*
X169680088Y-95920616D01*
X169512206Y-95920869D01*
X169326345Y-95921066D01*
X169121583Y-95921213D01*
X168897002Y-95921318D01*
X168651682Y-95921389D01*
X168384704Y-95921432D01*
X168346321Y-95921437D01*
X168080922Y-95921480D01*
X167837050Y-95921525D01*
X167613783Y-95921548D01*
X167410196Y-95921524D01*
X167225367Y-95921430D01*
X167058373Y-95921243D01*
X166908290Y-95920939D01*
X166774196Y-95920494D01*
X166655166Y-95919885D01*
X166550279Y-95919089D01*
X166458610Y-95918080D01*
X166379237Y-95916837D01*
X166311237Y-95915335D01*
X166253686Y-95913551D01*
X166205662Y-95911461D01*
X166166240Y-95909042D01*
X166134499Y-95906270D01*
X166109514Y-95903121D01*
X166090364Y-95899572D01*
X166076123Y-95895598D01*
X166065871Y-95891178D01*
X166058682Y-95886286D01*
X166053635Y-95880900D01*
X166049805Y-95874996D01*
X166046271Y-95868549D01*
X166042108Y-95861537D01*
X166041025Y-95859687D01*
X166038813Y-95854180D01*
X166036786Y-95845868D01*
X166034938Y-95833809D01*
X166033261Y-95817063D01*
X166031745Y-95794687D01*
X166030383Y-95765740D01*
X166029167Y-95729280D01*
X166028089Y-95684367D01*
X166027140Y-95630057D01*
X166026312Y-95565410D01*
X166025597Y-95489484D01*
X166024987Y-95401338D01*
X166024942Y-95392493D01*
X166316378Y-95392493D01*
X166320260Y-95393765D01*
X166343520Y-95395791D01*
X166385874Y-95397626D01*
X166445132Y-95399227D01*
X166519107Y-95400549D01*
X166605610Y-95401548D01*
X166702452Y-95402180D01*
X166807445Y-95402400D01*
X167505651Y-95402400D01*
X168660090Y-95402400D01*
X168659456Y-95326200D01*
X168660574Y-95284160D01*
X168666304Y-95248334D01*
X168678890Y-95210772D01*
X168700568Y-95162577D01*
X168703789Y-95155897D01*
X168729188Y-95106359D01*
X168755996Y-95058369D01*
X168778917Y-95021466D01*
X168783485Y-95014834D01*
X168805516Y-94983593D01*
X168837693Y-94938654D01*
X168878457Y-94882147D01*
X168926245Y-94816204D01*
X168979498Y-94742957D01*
X169036655Y-94664536D01*
X169096155Y-94583072D01*
X169156437Y-94500698D01*
X169215940Y-94419544D01*
X169273105Y-94341742D01*
X169326370Y-94269423D01*
X169374174Y-94204718D01*
X169414957Y-94149759D01*
X169447158Y-94106676D01*
X169469216Y-94077602D01*
X169479571Y-94064667D01*
X169484044Y-94060351D01*
X169488236Y-94058312D01*
X169491643Y-94060926D01*
X169494325Y-94069986D01*
X169496341Y-94087285D01*
X169497748Y-94114614D01*
X169498605Y-94153765D01*
X169498970Y-94206533D01*
X169498903Y-94274707D01*
X169498460Y-94360082D01*
X169497702Y-94464449D01*
X169496685Y-94589600D01*
X169496308Y-94634300D01*
X169495169Y-94755395D01*
X169493972Y-94856688D01*
X169492636Y-94940262D01*
X169491077Y-95008204D01*
X169489215Y-95062599D01*
X169486966Y-95105532D01*
X169484248Y-95139089D01*
X169480979Y-95165355D01*
X169477078Y-95186416D01*
X169472461Y-95204357D01*
X169464192Y-95230770D01*
X169440583Y-95292772D01*
X169414685Y-95345573D01*
X169389535Y-95382645D01*
X169388339Y-95384075D01*
X169386168Y-95388424D01*
X169388328Y-95392026D01*
X169396644Y-95394951D01*
X169412940Y-95397269D01*
X169439041Y-95399051D01*
X169476771Y-95400367D01*
X169527956Y-95401286D01*
X169594420Y-95401878D01*
X169677987Y-95402215D01*
X169780483Y-95402365D01*
X169903732Y-95402400D01*
X170435296Y-95402400D01*
X170396523Y-95344783D01*
X170390432Y-95335893D01*
X170379976Y-95321069D01*
X170370579Y-95307422D01*
X170362183Y-95293765D01*
X170354733Y-95278911D01*
X170348173Y-95261670D01*
X170342446Y-95240855D01*
X170337495Y-95215280D01*
X170333266Y-95183755D01*
X170329701Y-95145093D01*
X170326744Y-95098107D01*
X170324340Y-95041608D01*
X170322431Y-94974409D01*
X170320962Y-94895322D01*
X170319876Y-94803160D01*
X170319118Y-94696734D01*
X170318630Y-94574857D01*
X170318358Y-94436341D01*
X170318243Y-94279999D01*
X170318231Y-94104642D01*
X170318265Y-93909082D01*
X170318289Y-93692133D01*
X170318280Y-93569513D01*
X170318243Y-93364447D01*
X170318227Y-93180116D01*
X170318288Y-93015334D01*
X170318484Y-92868916D01*
X170318870Y-92739674D01*
X170319505Y-92626422D01*
X170320444Y-92527975D01*
X170321745Y-92443144D01*
X170323464Y-92370744D01*
X170325659Y-92309589D01*
X170328385Y-92258492D01*
X170331701Y-92216267D01*
X170335662Y-92181727D01*
X170340325Y-92153686D01*
X170345747Y-92130958D01*
X170351986Y-92112356D01*
X170359097Y-92096693D01*
X170367138Y-92082784D01*
X170376166Y-92069441D01*
X170386236Y-92055479D01*
X170397407Y-92039711D01*
X170437197Y-91981867D01*
X169377314Y-91981867D01*
X169415311Y-92044966D01*
X169429993Y-92070005D01*
X169444531Y-92097586D01*
X169456627Y-92125700D01*
X169466532Y-92156551D01*
X169474494Y-92192344D01*
X169480761Y-92235283D01*
X169485582Y-92287574D01*
X169489206Y-92351419D01*
X169491881Y-92429025D01*
X169493857Y-92522594D01*
X169495382Y-92634333D01*
X169496704Y-92766445D01*
X169497613Y-92886434D01*
X169498020Y-93003063D01*
X169497767Y-93098531D01*
X169496857Y-93172556D01*
X169495293Y-93224855D01*
X169493079Y-93255149D01*
X169490220Y-93263156D01*
X169487161Y-93259858D01*
X169469006Y-93238408D01*
X169439275Y-93201889D01*
X169399639Y-93152442D01*
X169351771Y-93092207D01*
X169297343Y-93023327D01*
X169238027Y-92947943D01*
X169175495Y-92868196D01*
X169111421Y-92786228D01*
X169047475Y-92704180D01*
X168985331Y-92624194D01*
X168926661Y-92548411D01*
X168873137Y-92478973D01*
X168826430Y-92418021D01*
X168788214Y-92367696D01*
X168760161Y-92330140D01*
X168743943Y-92307495D01*
X168698635Y-92235212D01*
X168658661Y-92155463D01*
X168637130Y-92087188D01*
X168633827Y-92029844D01*
X168639116Y-91981867D01*
X167507356Y-91982117D01*
X167546867Y-92012722D01*
X167556248Y-92020089D01*
X167619183Y-92074438D01*
X167687997Y-92142259D01*
X167764596Y-92225516D01*
X167850888Y-92326178D01*
X167868052Y-92346847D01*
X167908833Y-92396409D01*
X167958588Y-92457326D01*
X168015955Y-92527898D01*
X168079569Y-92606424D01*
X168148069Y-92691204D01*
X168220090Y-92780537D01*
X168294270Y-92872722D01*
X168309517Y-92891702D01*
X168369246Y-92966060D01*
X168443653Y-93058848D01*
X168516131Y-93149388D01*
X168585314Y-93235978D01*
X168649841Y-93316918D01*
X168708347Y-93390506D01*
X168759470Y-93455044D01*
X168801847Y-93508829D01*
X168834115Y-93550162D01*
X168854910Y-93577342D01*
X168862869Y-93588668D01*
X168861111Y-93592771D01*
X168848230Y-93613334D01*
X168823885Y-93649561D01*
X168789247Y-93699824D01*
X168745486Y-93762492D01*
X168693775Y-93835936D01*
X168635284Y-93918527D01*
X168571184Y-94008636D01*
X168502646Y-94104631D01*
X168430843Y-94204885D01*
X168356944Y-94307768D01*
X168282121Y-94411650D01*
X168207545Y-94514901D01*
X168134387Y-94615892D01*
X168063819Y-94712994D01*
X167997011Y-94804577D01*
X167935135Y-94889011D01*
X167879361Y-94964667D01*
X167830862Y-95029916D01*
X167790807Y-95083128D01*
X167760369Y-95122673D01*
X167739944Y-95148026D01*
X167693899Y-95202295D01*
X167643612Y-95258775D01*
X167596815Y-95308669D01*
X167505651Y-95402400D01*
X166807445Y-95402400D01*
X166876356Y-95402349D01*
X166974607Y-95402091D01*
X167064030Y-95401637D01*
X167142333Y-95401010D01*
X167207223Y-95400235D01*
X167256411Y-95399335D01*
X167287604Y-95398334D01*
X167298511Y-95397257D01*
X167297322Y-95394037D01*
X167287176Y-95376452D01*
X167270040Y-95350158D01*
X167261540Y-95337691D01*
X167252329Y-95323622D01*
X167244233Y-95309351D01*
X167237185Y-95293479D01*
X167231117Y-95274609D01*
X167225961Y-95251341D01*
X167221651Y-95222278D01*
X167218119Y-95186021D01*
X167215297Y-95141170D01*
X167213118Y-95086328D01*
X167211514Y-95020097D01*
X167210419Y-94941077D01*
X167209765Y-94847871D01*
X167209484Y-94739079D01*
X167209509Y-94613303D01*
X167209772Y-94469145D01*
X167210206Y-94305207D01*
X167210745Y-94120089D01*
X167211279Y-93941232D01*
X167211805Y-93782374D01*
X167212350Y-93643316D01*
X167212945Y-93522665D01*
X167213619Y-93419028D01*
X167214403Y-93331011D01*
X167215326Y-93257223D01*
X167216419Y-93196269D01*
X167217712Y-93146757D01*
X167219235Y-93107293D01*
X167221019Y-93076484D01*
X167223092Y-93052938D01*
X167225486Y-93035260D01*
X167228230Y-93022059D01*
X167231356Y-93011940D01*
X167234892Y-93003511D01*
X167238791Y-92995375D01*
X167258438Y-92958544D01*
X167277225Y-92928391D01*
X167278272Y-92926908D01*
X167292602Y-92904659D01*
X167298511Y-92891702D01*
X167297504Y-92891249D01*
X167280305Y-92889803D01*
X167243656Y-92888480D01*
X167189962Y-92887316D01*
X167121630Y-92886347D01*
X167041064Y-92885611D01*
X166950670Y-92885142D01*
X166852853Y-92884978D01*
X166407195Y-92884978D01*
X166404120Y-94061845D01*
X166401045Y-95238711D01*
X166374407Y-95297622D01*
X166362485Y-95322183D01*
X166345246Y-95352434D01*
X166332074Y-95369560D01*
X166324076Y-95377591D01*
X166316378Y-95392493D01*
X166024942Y-95392493D01*
X166024474Y-95300029D01*
X166024050Y-95184617D01*
X166023706Y-95054160D01*
X166023434Y-94907716D01*
X166023227Y-94744344D01*
X166023076Y-94563101D01*
X166022972Y-94363048D01*
X166022908Y-94143241D01*
X166022876Y-93902739D01*
X166022867Y-93640602D01*
X166022867Y-91449031D01*
X166061249Y-91410649D01*
X166088355Y-91386911D01*
X166115253Y-91375111D01*
X166151560Y-91372267D01*
X166203489Y-91372267D01*
X166203489Y-91460206D01*
X166205427Y-91510102D01*
X166224199Y-91620523D01*
X166261217Y-91721987D01*
X166314369Y-91813152D01*
X166381546Y-91892673D01*
X166460638Y-91959205D01*
X166549534Y-92011406D01*
X166646125Y-92047930D01*
X166748300Y-92067434D01*
X166853950Y-92068573D01*
X166960964Y-92050005D01*
X167067232Y-92010384D01*
X167164219Y-91952516D01*
X167249293Y-91877684D01*
X167318015Y-91789615D01*
X167368918Y-91690616D01*
X167400535Y-91582993D01*
X167411400Y-91469054D01*
X167411400Y-91372267D01*
X169031753Y-91372267D01*
X169242897Y-91372280D01*
X169447020Y-91372330D01*
X169630686Y-91372430D01*
X169794991Y-91372592D01*
X169941029Y-91372829D01*
X170069894Y-91373153D01*
X170182683Y-91373575D01*
X170280488Y-91374109D01*
X170364404Y-91374767D01*
X170435527Y-91375561D01*
X170494950Y-91376504D01*
X170543768Y-91377608D01*
X170583077Y-91378884D01*
X170613969Y-91380347D01*
X170637541Y-91382007D01*
X170654886Y-91383878D01*
X170667099Y-91385972D01*
X170675275Y-91388300D01*
X170680508Y-91390876D01*
X170686504Y-91394445D01*
X170693279Y-91397978D01*
X170699478Y-91401488D01*
X170705126Y-91405918D01*
X170710247Y-91412208D01*
X170714869Y-91421301D01*
X170719015Y-91434139D01*
X170722713Y-91451662D01*
X170725987Y-91474813D01*
X170728863Y-91504534D01*
X170731367Y-91541765D01*
X170733524Y-91587449D01*
X170735360Y-91642527D01*
X170736900Y-91707941D01*
X170738170Y-91784633D01*
X170739195Y-91873544D01*
X170740001Y-91975617D01*
X170740034Y-91981867D01*
X170740614Y-92091792D01*
G37*
X166919562Y-91012850D02*
X167002313Y-91040053D01*
X167077406Y-91085484D01*
X167149298Y-91151302D01*
X167187846Y-91195567D01*
X167227256Y-91253961D01*
X167252446Y-91314586D01*
X167265861Y-91383865D01*
X167269948Y-91468222D01*
X167269669Y-91514307D01*
X167267460Y-91555450D01*
X167261894Y-91587582D01*
X167251586Y-91618122D01*
X167235148Y-91654489D01*
X167221200Y-91681728D01*
X167162665Y-91767429D01*
X167090619Y-91836617D01*
X167006947Y-91887741D01*
X166913531Y-91919250D01*
X166880434Y-91926225D01*
X166839960Y-91933094D01*
X166806999Y-91934919D01*
X166772698Y-91931947D01*
X166728200Y-91924426D01*
X166676934Y-91912002D01*
X166586434Y-91874112D01*
X166507345Y-91819836D01*
X166441528Y-91751770D01*
X166390840Y-91672511D01*
X166357140Y-91584654D01*
X166342286Y-91490795D01*
X166348136Y-91393530D01*
X166374399Y-91297220D01*
X166419418Y-91208494D01*
X166480373Y-91133419D01*
X166555184Y-91073641D01*
X166641768Y-91030809D01*
X166738043Y-91006571D01*
X166841928Y-91002576D01*
X166919562Y-91012850D01*
G36*
X166919562Y-91012850D02*
G01*
X167002313Y-91040053D01*
X167077406Y-91085484D01*
X167149298Y-91151302D01*
X167187846Y-91195567D01*
X167227256Y-91253961D01*
X167252446Y-91314586D01*
X167265861Y-91383865D01*
X167269948Y-91468222D01*
X167269669Y-91514307D01*
X167267460Y-91555450D01*
X167261894Y-91587582D01*
X167251586Y-91618122D01*
X167235148Y-91654489D01*
X167221200Y-91681728D01*
X167162665Y-91767429D01*
X167090619Y-91836617D01*
X167006947Y-91887741D01*
X166913531Y-91919250D01*
X166880434Y-91926225D01*
X166839960Y-91933094D01*
X166806999Y-91934919D01*
X166772698Y-91931947D01*
X166728200Y-91924426D01*
X166676934Y-91912002D01*
X166586434Y-91874112D01*
X166507345Y-91819836D01*
X166441528Y-91751770D01*
X166390840Y-91672511D01*
X166357140Y-91584654D01*
X166342286Y-91490795D01*
X166348136Y-91393530D01*
X166374399Y-91297220D01*
X166419418Y-91208494D01*
X166480373Y-91133419D01*
X166555184Y-91073641D01*
X166641768Y-91030809D01*
X166738043Y-91006571D01*
X166841928Y-91002576D01*
X166919562Y-91012850D01*
G37*
X165796893Y-96247892D02*
X165808301Y-96254029D01*
X165818850Y-96264691D01*
X165830136Y-96278811D01*
X165834589Y-96284772D01*
X165840588Y-96295268D01*
X165845167Y-96309093D01*
X165848519Y-96328998D01*
X165850833Y-96357732D01*
X165852301Y-96398045D01*
X165853113Y-96452687D01*
X165853460Y-96524407D01*
X165853534Y-96615956D01*
X165853511Y-96674486D01*
X165853292Y-96753573D01*
X165852683Y-96814516D01*
X165851492Y-96860062D01*
X165849529Y-96892963D01*
X165846603Y-96915968D01*
X165842523Y-96931826D01*
X165837097Y-96943286D01*
X165830136Y-96953100D01*
X165799708Y-96977493D01*
X165764765Y-96980372D01*
X165727784Y-96961282D01*
X165723600Y-96957807D01*
X165715424Y-96949279D01*
X165709364Y-96937728D01*
X165704981Y-96919896D01*
X165701839Y-96892524D01*
X165699502Y-96852354D01*
X165697531Y-96796128D01*
X165695489Y-96720589D01*
X165689845Y-96501458D01*
X165424556Y-96742099D01*
X165350722Y-96808875D01*
X165285542Y-96866991D01*
X165233348Y-96911949D01*
X165192273Y-96944871D01*
X165160455Y-96966879D01*
X165136026Y-96979094D01*
X165117124Y-96982639D01*
X165101883Y-96978636D01*
X165088439Y-96968207D01*
X165074927Y-96952474D01*
X165068682Y-96943991D01*
X165063050Y-96933413D01*
X165058839Y-96919255D01*
X165055887Y-96898803D01*
X165054032Y-96869342D01*
X165053113Y-96828161D01*
X165052968Y-96772544D01*
X165053435Y-96699779D01*
X165054352Y-96607151D01*
X165057667Y-96292199D01*
X165084318Y-96270633D01*
X165110383Y-96254441D01*
X165143241Y-96251670D01*
X165177772Y-96270623D01*
X165182084Y-96274208D01*
X165190216Y-96282737D01*
X165196245Y-96294329D01*
X165200606Y-96312235D01*
X165203734Y-96339706D01*
X165206063Y-96379994D01*
X165208029Y-96436351D01*
X165210067Y-96512029D01*
X165215711Y-96731878D01*
X165396334Y-96568084D01*
X165483072Y-96489451D01*
X165558843Y-96421058D01*
X165620980Y-96365708D01*
X165671078Y-96322338D01*
X165710735Y-96289881D01*
X165741548Y-96267273D01*
X165765114Y-96253448D01*
X165783030Y-96247343D01*
X165796893Y-96247892D01*
G36*
X165796893Y-96247892D02*
G01*
X165808301Y-96254029D01*
X165818850Y-96264691D01*
X165830136Y-96278811D01*
X165834589Y-96284772D01*
X165840588Y-96295268D01*
X165845167Y-96309093D01*
X165848519Y-96328998D01*
X165850833Y-96357732D01*
X165852301Y-96398045D01*
X165853113Y-96452687D01*
X165853460Y-96524407D01*
X165853534Y-96615956D01*
X165853511Y-96674486D01*
X165853292Y-96753573D01*
X165852683Y-96814516D01*
X165851492Y-96860062D01*
X165849529Y-96892963D01*
X165846603Y-96915968D01*
X165842523Y-96931826D01*
X165837097Y-96943286D01*
X165830136Y-96953100D01*
X165799708Y-96977493D01*
X165764765Y-96980372D01*
X165727784Y-96961282D01*
X165723600Y-96957807D01*
X165715424Y-96949279D01*
X165709364Y-96937728D01*
X165704981Y-96919896D01*
X165701839Y-96892524D01*
X165699502Y-96852354D01*
X165697531Y-96796128D01*
X165695489Y-96720589D01*
X165689845Y-96501458D01*
X165424556Y-96742099D01*
X165350722Y-96808875D01*
X165285542Y-96866991D01*
X165233348Y-96911949D01*
X165192273Y-96944871D01*
X165160455Y-96966879D01*
X165136026Y-96979094D01*
X165117124Y-96982639D01*
X165101883Y-96978636D01*
X165088439Y-96968207D01*
X165074927Y-96952474D01*
X165068682Y-96943991D01*
X165063050Y-96933413D01*
X165058839Y-96919255D01*
X165055887Y-96898803D01*
X165054032Y-96869342D01*
X165053113Y-96828161D01*
X165052968Y-96772544D01*
X165053435Y-96699779D01*
X165054352Y-96607151D01*
X165057667Y-96292199D01*
X165084318Y-96270633D01*
X165110383Y-96254441D01*
X165143241Y-96251670D01*
X165177772Y-96270623D01*
X165182084Y-96274208D01*
X165190216Y-96282737D01*
X165196245Y-96294329D01*
X165200606Y-96312235D01*
X165203734Y-96339706D01*
X165206063Y-96379994D01*
X165208029Y-96436351D01*
X165210067Y-96512029D01*
X165215711Y-96731878D01*
X165396334Y-96568084D01*
X165483072Y-96489451D01*
X165558843Y-96421058D01*
X165620980Y-96365708D01*
X165671078Y-96322338D01*
X165710735Y-96289881D01*
X165741548Y-96267273D01*
X165765114Y-96253448D01*
X165783030Y-96247343D01*
X165796893Y-96247892D01*
G37*
X169321734Y-96249083D02*
X169398831Y-96249275D01*
X169457777Y-96249860D01*
X169501364Y-96251051D01*
X169532383Y-96253064D01*
X169553625Y-96256112D01*
X169567882Y-96260409D01*
X169577945Y-96266172D01*
X169586606Y-96273612D01*
X169588391Y-96275293D01*
X169595635Y-96282832D01*
X169601277Y-96291850D01*
X169605517Y-96304984D01*
X169608556Y-96324872D01*
X169610594Y-96354151D01*
X169611830Y-96395458D01*
X169612465Y-96451431D01*
X169612700Y-96524707D01*
X169612734Y-96617923D01*
X169612697Y-96690713D01*
X169612448Y-96768889D01*
X169611812Y-96829103D01*
X169610615Y-96873982D01*
X169608684Y-96906152D01*
X169605846Y-96928239D01*
X169601927Y-96942870D01*
X169596755Y-96952670D01*
X169590156Y-96960267D01*
X169586822Y-96963444D01*
X169578300Y-96969554D01*
X169566298Y-96974229D01*
X169548087Y-96977659D01*
X169520940Y-96980036D01*
X169482129Y-96981552D01*
X169428924Y-96982398D01*
X169358598Y-96982765D01*
X169268422Y-96982845D01*
X169226314Y-96982833D01*
X169145167Y-96982651D01*
X169082675Y-96982098D01*
X169036109Y-96980982D01*
X169002741Y-96979113D01*
X168979844Y-96976298D01*
X168964688Y-96972346D01*
X168954546Y-96967066D01*
X168946689Y-96960267D01*
X168931963Y-96938667D01*
X168924111Y-96909467D01*
X168929610Y-96885560D01*
X168946689Y-96858667D01*
X168951668Y-96854059D01*
X168961443Y-96847772D01*
X168975559Y-96843146D01*
X168997054Y-96839930D01*
X169028968Y-96837870D01*
X169074342Y-96836712D01*
X169136213Y-96836202D01*
X169217622Y-96836089D01*
X169465978Y-96836089D01*
X169465978Y-96678045D01*
X169304801Y-96678045D01*
X169268983Y-96677899D01*
X169203359Y-96676176D01*
X169156118Y-96671741D01*
X169124383Y-96663637D01*
X169105277Y-96650906D01*
X169095923Y-96632592D01*
X169093445Y-96607738D01*
X169094242Y-96587482D01*
X169099494Y-96565656D01*
X169112288Y-96550304D01*
X169135628Y-96540309D01*
X169172517Y-96534553D01*
X169225959Y-96531919D01*
X169298958Y-96531289D01*
X169467105Y-96531289D01*
X169463719Y-96466378D01*
X169460334Y-96401467D01*
X169212617Y-96398418D01*
X169150026Y-96397539D01*
X169081565Y-96396095D01*
X169030661Y-96394164D01*
X168994408Y-96391514D01*
X168969901Y-96387910D01*
X168954235Y-96383121D01*
X168944506Y-96376913D01*
X168938491Y-96370510D01*
X168925482Y-96338828D01*
X168929043Y-96303142D01*
X168948818Y-96272084D01*
X168952069Y-96269161D01*
X168961049Y-96262810D01*
X168973153Y-96257957D01*
X168991159Y-96254403D01*
X169017847Y-96251946D01*
X169055997Y-96250385D01*
X169108386Y-96249518D01*
X169177794Y-96249146D01*
X169267001Y-96249067D01*
X169321734Y-96249083D01*
G36*
X169321734Y-96249083D02*
G01*
X169398831Y-96249275D01*
X169457777Y-96249860D01*
X169501364Y-96251051D01*
X169532383Y-96253064D01*
X169553625Y-96256112D01*
X169567882Y-96260409D01*
X169577945Y-96266172D01*
X169586606Y-96273612D01*
X169588391Y-96275293D01*
X169595635Y-96282832D01*
X169601277Y-96291850D01*
X169605517Y-96304984D01*
X169608556Y-96324872D01*
X169610594Y-96354151D01*
X169611830Y-96395458D01*
X169612465Y-96451431D01*
X169612700Y-96524707D01*
X169612734Y-96617923D01*
X169612697Y-96690713D01*
X169612448Y-96768889D01*
X169611812Y-96829103D01*
X169610615Y-96873982D01*
X169608684Y-96906152D01*
X169605846Y-96928239D01*
X169601927Y-96942870D01*
X169596755Y-96952670D01*
X169590156Y-96960267D01*
X169586822Y-96963444D01*
X169578300Y-96969554D01*
X169566298Y-96974229D01*
X169548087Y-96977659D01*
X169520940Y-96980036D01*
X169482129Y-96981552D01*
X169428924Y-96982398D01*
X169358598Y-96982765D01*
X169268422Y-96982845D01*
X169226314Y-96982833D01*
X169145167Y-96982651D01*
X169082675Y-96982098D01*
X169036109Y-96980982D01*
X169002741Y-96979113D01*
X168979844Y-96976298D01*
X168964688Y-96972346D01*
X168954546Y-96967066D01*
X168946689Y-96960267D01*
X168931963Y-96938667D01*
X168924111Y-96909467D01*
X168929610Y-96885560D01*
X168946689Y-96858667D01*
X168951668Y-96854059D01*
X168961443Y-96847772D01*
X168975559Y-96843146D01*
X168997054Y-96839930D01*
X169028968Y-96837870D01*
X169074342Y-96836712D01*
X169136213Y-96836202D01*
X169217622Y-96836089D01*
X169465978Y-96836089D01*
X169465978Y-96678045D01*
X169304801Y-96678045D01*
X169268983Y-96677899D01*
X169203359Y-96676176D01*
X169156118Y-96671741D01*
X169124383Y-96663637D01*
X169105277Y-96650906D01*
X169095923Y-96632592D01*
X169093445Y-96607738D01*
X169094242Y-96587482D01*
X169099494Y-96565656D01*
X169112288Y-96550304D01*
X169135628Y-96540309D01*
X169172517Y-96534553D01*
X169225959Y-96531919D01*
X169298958Y-96531289D01*
X169467105Y-96531289D01*
X169463719Y-96466378D01*
X169460334Y-96401467D01*
X169212617Y-96398418D01*
X169150026Y-96397539D01*
X169081565Y-96396095D01*
X169030661Y-96394164D01*
X168994408Y-96391514D01*
X168969901Y-96387910D01*
X168954235Y-96383121D01*
X168944506Y-96376913D01*
X168938491Y-96370510D01*
X168925482Y-96338828D01*
X168929043Y-96303142D01*
X168948818Y-96272084D01*
X168952069Y-96269161D01*
X168961049Y-96262810D01*
X168973153Y-96257957D01*
X168991159Y-96254403D01*
X169017847Y-96251946D01*
X169055997Y-96250385D01*
X169108386Y-96249518D01*
X169177794Y-96249146D01*
X169267001Y-96249067D01*
X169321734Y-96249083D01*
G37*
X164644803Y-96278811D02*
X164649752Y-96285495D01*
X164655596Y-96296066D01*
X164660057Y-96310153D01*
X164663321Y-96330478D01*
X164665574Y-96359765D01*
X164667002Y-96400737D01*
X164667792Y-96456117D01*
X164668129Y-96528628D01*
X164668200Y-96620994D01*
X164668171Y-96686911D01*
X164667939Y-96765228D01*
X164667319Y-96825496D01*
X164666126Y-96870393D01*
X164664179Y-96902602D01*
X164661294Y-96924800D01*
X164657288Y-96939669D01*
X164651979Y-96949889D01*
X164645183Y-96958138D01*
X164640668Y-96962795D01*
X164632438Y-96969282D01*
X164621078Y-96974194D01*
X164603810Y-96977749D01*
X164577855Y-96980167D01*
X164540436Y-96981667D01*
X164488773Y-96982467D01*
X164420089Y-96982787D01*
X164331606Y-96982845D01*
X164311931Y-96982838D01*
X164224906Y-96982572D01*
X164157254Y-96981806D01*
X164106299Y-96980392D01*
X164069367Y-96978180D01*
X164043783Y-96975022D01*
X164026871Y-96970769D01*
X164015957Y-96965271D01*
X164005464Y-96955285D01*
X163992203Y-96924168D01*
X163993386Y-96888280D01*
X164009550Y-96856733D01*
X164011739Y-96854457D01*
X164020427Y-96848189D01*
X164033769Y-96843523D01*
X164054752Y-96840227D01*
X164086363Y-96838068D01*
X164131590Y-96836814D01*
X164193420Y-96836231D01*
X164274839Y-96836089D01*
X164521445Y-96836089D01*
X164521445Y-96678045D01*
X164359006Y-96678045D01*
X164323338Y-96677964D01*
X164267568Y-96677167D01*
X164228430Y-96675162D01*
X164201976Y-96671521D01*
X164184259Y-96665812D01*
X164171329Y-96657607D01*
X164167686Y-96654423D01*
X164149278Y-96623448D01*
X164148644Y-96587112D01*
X164166183Y-96553493D01*
X164166245Y-96553424D01*
X164175916Y-96544798D01*
X164189209Y-96538742D01*
X164209917Y-96534811D01*
X164241828Y-96532556D01*
X164288734Y-96531531D01*
X164354424Y-96531289D01*
X164522571Y-96531289D01*
X164519186Y-96466378D01*
X164515800Y-96401467D01*
X164273723Y-96398414D01*
X164248707Y-96398086D01*
X164167087Y-96396606D01*
X164104768Y-96394222D01*
X164059154Y-96390227D01*
X164027652Y-96383913D01*
X164007667Y-96374574D01*
X163996604Y-96361503D01*
X163991869Y-96343992D01*
X163990867Y-96321335D01*
X163990873Y-96318970D01*
X163992027Y-96298939D01*
X163996824Y-96283146D01*
X164007632Y-96271090D01*
X164026817Y-96262267D01*
X164056745Y-96256175D01*
X164099783Y-96252311D01*
X164158299Y-96250174D01*
X164234657Y-96249260D01*
X164331226Y-96249067D01*
X164621406Y-96249067D01*
X164644803Y-96278811D01*
G36*
X164644803Y-96278811D02*
G01*
X164649752Y-96285495D01*
X164655596Y-96296066D01*
X164660057Y-96310153D01*
X164663321Y-96330478D01*
X164665574Y-96359765D01*
X164667002Y-96400737D01*
X164667792Y-96456117D01*
X164668129Y-96528628D01*
X164668200Y-96620994D01*
X164668171Y-96686911D01*
X164667939Y-96765228D01*
X164667319Y-96825496D01*
X164666126Y-96870393D01*
X164664179Y-96902602D01*
X164661294Y-96924800D01*
X164657288Y-96939669D01*
X164651979Y-96949889D01*
X164645183Y-96958138D01*
X164640668Y-96962795D01*
X164632438Y-96969282D01*
X164621078Y-96974194D01*
X164603810Y-96977749D01*
X164577855Y-96980167D01*
X164540436Y-96981667D01*
X164488773Y-96982467D01*
X164420089Y-96982787D01*
X164331606Y-96982845D01*
X164311931Y-96982838D01*
X164224906Y-96982572D01*
X164157254Y-96981806D01*
X164106299Y-96980392D01*
X164069367Y-96978180D01*
X164043783Y-96975022D01*
X164026871Y-96970769D01*
X164015957Y-96965271D01*
X164005464Y-96955285D01*
X163992203Y-96924168D01*
X163993386Y-96888280D01*
X164009550Y-96856733D01*
X164011739Y-96854457D01*
X164020427Y-96848189D01*
X164033769Y-96843523D01*
X164054752Y-96840227D01*
X164086363Y-96838068D01*
X164131590Y-96836814D01*
X164193420Y-96836231D01*
X164274839Y-96836089D01*
X164521445Y-96836089D01*
X164521445Y-96678045D01*
X164359006Y-96678045D01*
X164323338Y-96677964D01*
X164267568Y-96677167D01*
X164228430Y-96675162D01*
X164201976Y-96671521D01*
X164184259Y-96665812D01*
X164171329Y-96657607D01*
X164167686Y-96654423D01*
X164149278Y-96623448D01*
X164148644Y-96587112D01*
X164166183Y-96553493D01*
X164166245Y-96553424D01*
X164175916Y-96544798D01*
X164189209Y-96538742D01*
X164209917Y-96534811D01*
X164241828Y-96532556D01*
X164288734Y-96531531D01*
X164354424Y-96531289D01*
X164522571Y-96531289D01*
X164519186Y-96466378D01*
X164515800Y-96401467D01*
X164273723Y-96398414D01*
X164248707Y-96398086D01*
X164167087Y-96396606D01*
X164104768Y-96394222D01*
X164059154Y-96390227D01*
X164027652Y-96383913D01*
X164007667Y-96374574D01*
X163996604Y-96361503D01*
X163991869Y-96343992D01*
X163990867Y-96321335D01*
X163990873Y-96318970D01*
X163992027Y-96298939D01*
X163996824Y-96283146D01*
X164007632Y-96271090D01*
X164026817Y-96262267D01*
X164056745Y-96256175D01*
X164099783Y-96252311D01*
X164158299Y-96250174D01*
X164234657Y-96249260D01*
X164331226Y-96249067D01*
X164621406Y-96249067D01*
X164644803Y-96278811D01*
G37*
X160320406Y-96254949D02*
X160346127Y-96270647D01*
X160372778Y-96292227D01*
X160372778Y-96939684D01*
X160346127Y-96961264D01*
X160314767Y-96978739D01*
X160278966Y-96979575D01*
X160247528Y-96959082D01*
X160243652Y-96954416D01*
X160238186Y-96944949D01*
X160233979Y-96931267D01*
X160230867Y-96910748D01*
X160228687Y-96880768D01*
X160227276Y-96838704D01*
X160226471Y-96781932D01*
X160226107Y-96707830D01*
X160226022Y-96613773D01*
X160226022Y-96292227D01*
X160252673Y-96270647D01*
X160276386Y-96255877D01*
X160299400Y-96249067D01*
X160320406Y-96254949D01*
G36*
X160320406Y-96254949D02*
G01*
X160346127Y-96270647D01*
X160372778Y-96292227D01*
X160372778Y-96939684D01*
X160346127Y-96961264D01*
X160314767Y-96978739D01*
X160278966Y-96979575D01*
X160247528Y-96959082D01*
X160243652Y-96954416D01*
X160238186Y-96944949D01*
X160233979Y-96931267D01*
X160230867Y-96910748D01*
X160228687Y-96880768D01*
X160227276Y-96838704D01*
X160226471Y-96781932D01*
X160226107Y-96707830D01*
X160226022Y-96613773D01*
X160226022Y-96292227D01*
X160252673Y-96270647D01*
X160276386Y-96255877D01*
X160299400Y-96249067D01*
X160320406Y-96254949D01*
G37*
X158944734Y-96271645D02*
X158950366Y-96277835D01*
X158955456Y-96286041D01*
X158959543Y-96297817D01*
X158962721Y-96315276D01*
X158965087Y-96340530D01*
X158966738Y-96375690D01*
X158967769Y-96422869D01*
X158968277Y-96484177D01*
X158968359Y-96561727D01*
X158968109Y-96657631D01*
X158967625Y-96774000D01*
X158967557Y-96788175D01*
X158966971Y-96849937D01*
X158965648Y-96893620D01*
X158963103Y-96923001D01*
X158958848Y-96941855D01*
X158952396Y-96953959D01*
X158943262Y-96963089D01*
X158909804Y-96980506D01*
X158874856Y-96977604D01*
X158843953Y-96953100D01*
X158834944Y-96939897D01*
X158827492Y-96921361D01*
X158823124Y-96895333D01*
X158821069Y-96856787D01*
X158820556Y-96800700D01*
X158820556Y-96678045D01*
X158323845Y-96678045D01*
X158323845Y-96812871D01*
X158323772Y-96848662D01*
X158323009Y-96894992D01*
X158320833Y-96925526D01*
X158316536Y-96944557D01*
X158309412Y-96956374D01*
X158298755Y-96965271D01*
X158266504Y-96980341D01*
X158231217Y-96977673D01*
X158200486Y-96953100D01*
X158195831Y-96946845D01*
X158189895Y-96936321D01*
X158185364Y-96922391D01*
X158182048Y-96902317D01*
X158179759Y-96873360D01*
X158178308Y-96832780D01*
X158177505Y-96777840D01*
X158177162Y-96705799D01*
X158177089Y-96613920D01*
X158177089Y-96304485D01*
X158204798Y-96276776D01*
X158236177Y-96254533D01*
X158269406Y-96251844D01*
X158301267Y-96271645D01*
X158309553Y-96281415D01*
X158316965Y-96297307D01*
X158321302Y-96321275D01*
X158323338Y-96358148D01*
X158323845Y-96412756D01*
X158323845Y-96531289D01*
X158820556Y-96531289D01*
X158820556Y-96415776D01*
X158820994Y-96364078D01*
X158822958Y-96329554D01*
X158827474Y-96306978D01*
X158835567Y-96291126D01*
X158848265Y-96276776D01*
X158879643Y-96254533D01*
X158912872Y-96251844D01*
X158944734Y-96271645D01*
G36*
X158944734Y-96271645D02*
G01*
X158950366Y-96277835D01*
X158955456Y-96286041D01*
X158959543Y-96297817D01*
X158962721Y-96315276D01*
X158965087Y-96340530D01*
X158966738Y-96375690D01*
X158967769Y-96422869D01*
X158968277Y-96484177D01*
X158968359Y-96561727D01*
X158968109Y-96657631D01*
X158967625Y-96774000D01*
X158967557Y-96788175D01*
X158966971Y-96849937D01*
X158965648Y-96893620D01*
X158963103Y-96923001D01*
X158958848Y-96941855D01*
X158952396Y-96953959D01*
X158943262Y-96963089D01*
X158909804Y-96980506D01*
X158874856Y-96977604D01*
X158843953Y-96953100D01*
X158834944Y-96939897D01*
X158827492Y-96921361D01*
X158823124Y-96895333D01*
X158821069Y-96856787D01*
X158820556Y-96800700D01*
X158820556Y-96678045D01*
X158323845Y-96678045D01*
X158323845Y-96812871D01*
X158323772Y-96848662D01*
X158323009Y-96894992D01*
X158320833Y-96925526D01*
X158316536Y-96944557D01*
X158309412Y-96956374D01*
X158298755Y-96965271D01*
X158266504Y-96980341D01*
X158231217Y-96977673D01*
X158200486Y-96953100D01*
X158195831Y-96946845D01*
X158189895Y-96936321D01*
X158185364Y-96922391D01*
X158182048Y-96902317D01*
X158179759Y-96873360D01*
X158178308Y-96832780D01*
X158177505Y-96777840D01*
X158177162Y-96705799D01*
X158177089Y-96613920D01*
X158177089Y-96304485D01*
X158204798Y-96276776D01*
X158236177Y-96254533D01*
X158269406Y-96251844D01*
X158301267Y-96271645D01*
X158309553Y-96281415D01*
X158316965Y-96297307D01*
X158321302Y-96321275D01*
X158323338Y-96358148D01*
X158323845Y-96412756D01*
X158323845Y-96531289D01*
X158820556Y-96531289D01*
X158820556Y-96415776D01*
X158820994Y-96364078D01*
X158822958Y-96329554D01*
X158827474Y-96306978D01*
X158835567Y-96291126D01*
X158848265Y-96276776D01*
X158879643Y-96254533D01*
X158912872Y-96251844D01*
X158944734Y-96271645D01*
G37*
X166594150Y-96254179D02*
X166700157Y-96270494D01*
X166793969Y-96298545D01*
X166872765Y-96337452D01*
X166933719Y-96386334D01*
X166959789Y-96419195D01*
X166989297Y-96468394D01*
X167014568Y-96522252D01*
X167032218Y-96573419D01*
X167038858Y-96614544D01*
X167037298Y-96634259D01*
X167024357Y-96685592D01*
X167001194Y-96742118D01*
X166971302Y-96796035D01*
X166938173Y-96839539D01*
X166927977Y-96849887D01*
X166860892Y-96901662D01*
X166780766Y-96941554D01*
X166694556Y-96965956D01*
X166639592Y-96974068D01*
X166546139Y-96980673D01*
X166456358Y-96978586D01*
X166373869Y-96968340D01*
X166302286Y-96950470D01*
X166245228Y-96925508D01*
X166206311Y-96893988D01*
X166204936Y-96892012D01*
X166197848Y-96866786D01*
X166193609Y-96819535D01*
X166192200Y-96750071D01*
X166193060Y-96687838D01*
X166197780Y-96640456D01*
X166209470Y-96608353D01*
X166231239Y-96588800D01*
X166266198Y-96579070D01*
X166317456Y-96576433D01*
X166388123Y-96578161D01*
X166436743Y-96581173D01*
X166486939Y-96589366D01*
X166519433Y-96603419D01*
X166536892Y-96624654D01*
X166541983Y-96654394D01*
X166541877Y-96658936D01*
X166533175Y-96693730D01*
X166509165Y-96717147D01*
X166467900Y-96730347D01*
X166407431Y-96734489D01*
X166338956Y-96734489D01*
X166338956Y-96772841D01*
X166339006Y-96781976D01*
X166341227Y-96799227D01*
X166350494Y-96809521D01*
X166371875Y-96816459D01*
X166410436Y-96823641D01*
X166415910Y-96824575D01*
X166512860Y-96834478D01*
X166602852Y-96831559D01*
X166683760Y-96816829D01*
X166753459Y-96791299D01*
X166809824Y-96755978D01*
X166850729Y-96711879D01*
X166874051Y-96660012D01*
X166877663Y-96601388D01*
X166872145Y-96572494D01*
X166845461Y-96516604D01*
X166799273Y-96470945D01*
X166734291Y-96436108D01*
X166651229Y-96412690D01*
X166626555Y-96408241D01*
X166537226Y-96397742D01*
X166457419Y-96398971D01*
X166379326Y-96411906D01*
X166344183Y-96418696D01*
X166298745Y-96419713D01*
X166267430Y-96407182D01*
X166247277Y-96380395D01*
X166240893Y-96352148D01*
X166250379Y-96320924D01*
X166259708Y-96307499D01*
X166293943Y-96283967D01*
X166346565Y-96266095D01*
X166415081Y-96254599D01*
X166497000Y-96250192D01*
X166594150Y-96254179D01*
G36*
X166594150Y-96254179D02*
G01*
X166700157Y-96270494D01*
X166793969Y-96298545D01*
X166872765Y-96337452D01*
X166933719Y-96386334D01*
X166959789Y-96419195D01*
X166989297Y-96468394D01*
X167014568Y-96522252D01*
X167032218Y-96573419D01*
X167038858Y-96614544D01*
X167037298Y-96634259D01*
X167024357Y-96685592D01*
X167001194Y-96742118D01*
X166971302Y-96796035D01*
X166938173Y-96839539D01*
X166927977Y-96849887D01*
X166860892Y-96901662D01*
X166780766Y-96941554D01*
X166694556Y-96965956D01*
X166639592Y-96974068D01*
X166546139Y-96980673D01*
X166456358Y-96978586D01*
X166373869Y-96968340D01*
X166302286Y-96950470D01*
X166245228Y-96925508D01*
X166206311Y-96893988D01*
X166204936Y-96892012D01*
X166197848Y-96866786D01*
X166193609Y-96819535D01*
X166192200Y-96750071D01*
X166193060Y-96687838D01*
X166197780Y-96640456D01*
X166209470Y-96608353D01*
X166231239Y-96588800D01*
X166266198Y-96579070D01*
X166317456Y-96576433D01*
X166388123Y-96578161D01*
X166436743Y-96581173D01*
X166486939Y-96589366D01*
X166519433Y-96603419D01*
X166536892Y-96624654D01*
X166541983Y-96654394D01*
X166541877Y-96658936D01*
X166533175Y-96693730D01*
X166509165Y-96717147D01*
X166467900Y-96730347D01*
X166407431Y-96734489D01*
X166338956Y-96734489D01*
X166338956Y-96772841D01*
X166339006Y-96781976D01*
X166341227Y-96799227D01*
X166350494Y-96809521D01*
X166371875Y-96816459D01*
X166410436Y-96823641D01*
X166415910Y-96824575D01*
X166512860Y-96834478D01*
X166602852Y-96831559D01*
X166683760Y-96816829D01*
X166753459Y-96791299D01*
X166809824Y-96755978D01*
X166850729Y-96711879D01*
X166874051Y-96660012D01*
X166877663Y-96601388D01*
X166872145Y-96572494D01*
X166845461Y-96516604D01*
X166799273Y-96470945D01*
X166734291Y-96436108D01*
X166651229Y-96412690D01*
X166626555Y-96408241D01*
X166537226Y-96397742D01*
X166457419Y-96398971D01*
X166379326Y-96411906D01*
X166344183Y-96418696D01*
X166298745Y-96419713D01*
X166267430Y-96407182D01*
X166247277Y-96380395D01*
X166240893Y-96352148D01*
X166250379Y-96320924D01*
X166259708Y-96307499D01*
X166293943Y-96283967D01*
X166346565Y-96266095D01*
X166415081Y-96254599D01*
X166497000Y-96250192D01*
X166594150Y-96254179D01*
G37*
X163650133Y-96860396D02*
X163648163Y-96893175D01*
X163645235Y-96916095D01*
X163641158Y-96931897D01*
X163635743Y-96943319D01*
X163628803Y-96953100D01*
X163605406Y-96982845D01*
X163439714Y-96982251D01*
X163404918Y-96981953D01*
X163306435Y-96978522D01*
X163225473Y-96970839D01*
X163158379Y-96958282D01*
X163101496Y-96940227D01*
X163051169Y-96916052D01*
X163047810Y-96914135D01*
X162989998Y-96877417D01*
X162947644Y-96840451D01*
X162914828Y-96796966D01*
X162885628Y-96740689D01*
X162881346Y-96731073D01*
X162858769Y-96667887D01*
X162853034Y-96622333D01*
X163002279Y-96622333D01*
X163007892Y-96647061D01*
X163013618Y-96662939D01*
X163046548Y-96722847D01*
X163093886Y-96768600D01*
X163157652Y-96801736D01*
X163239861Y-96823790D01*
X163242655Y-96824292D01*
X163288940Y-96830255D01*
X163345336Y-96834483D01*
X163400274Y-96836089D01*
X163494156Y-96836089D01*
X163494156Y-96395822D01*
X163406667Y-96396270D01*
X163339747Y-96398746D01*
X163247349Y-96409998D01*
X163168034Y-96429537D01*
X163106060Y-96456511D01*
X163075120Y-96477240D01*
X163047000Y-96507006D01*
X163023660Y-96549434D01*
X163016533Y-96565400D01*
X163004709Y-96597902D01*
X163002279Y-96622333D01*
X162853034Y-96622333D01*
X162851797Y-96612509D01*
X162860399Y-96557483D01*
X162884541Y-96495351D01*
X162885337Y-96493658D01*
X162925788Y-96424236D01*
X162976473Y-96367638D01*
X163039198Y-96323070D01*
X163115774Y-96289741D01*
X163208009Y-96266861D01*
X163317712Y-96253636D01*
X163446691Y-96249275D01*
X163450263Y-96249270D01*
X163510283Y-96249410D01*
X163552214Y-96250446D01*
X163580328Y-96253040D01*
X163598897Y-96257853D01*
X163612194Y-96265544D01*
X163624491Y-96276776D01*
X163652200Y-96304485D01*
X163652200Y-96613920D01*
X163652175Y-96675526D01*
X163651950Y-96754311D01*
X163651332Y-96815021D01*
X163650775Y-96836089D01*
X163650133Y-96860396D01*
G36*
X163650133Y-96860396D02*
G01*
X163648163Y-96893175D01*
X163645235Y-96916095D01*
X163641158Y-96931897D01*
X163635743Y-96943319D01*
X163628803Y-96953100D01*
X163605406Y-96982845D01*
X163439714Y-96982251D01*
X163404918Y-96981953D01*
X163306435Y-96978522D01*
X163225473Y-96970839D01*
X163158379Y-96958282D01*
X163101496Y-96940227D01*
X163051169Y-96916052D01*
X163047810Y-96914135D01*
X162989998Y-96877417D01*
X162947644Y-96840451D01*
X162914828Y-96796966D01*
X162885628Y-96740689D01*
X162881346Y-96731073D01*
X162858769Y-96667887D01*
X162853034Y-96622333D01*
X163002279Y-96622333D01*
X163007892Y-96647061D01*
X163013618Y-96662939D01*
X163046548Y-96722847D01*
X163093886Y-96768600D01*
X163157652Y-96801736D01*
X163239861Y-96823790D01*
X163242655Y-96824292D01*
X163288940Y-96830255D01*
X163345336Y-96834483D01*
X163400274Y-96836089D01*
X163494156Y-96836089D01*
X163494156Y-96395822D01*
X163406667Y-96396270D01*
X163339747Y-96398746D01*
X163247349Y-96409998D01*
X163168034Y-96429537D01*
X163106060Y-96456511D01*
X163075120Y-96477240D01*
X163047000Y-96507006D01*
X163023660Y-96549434D01*
X163016533Y-96565400D01*
X163004709Y-96597902D01*
X163002279Y-96622333D01*
X162853034Y-96622333D01*
X162851797Y-96612509D01*
X162860399Y-96557483D01*
X162884541Y-96495351D01*
X162885337Y-96493658D01*
X162925788Y-96424236D01*
X162976473Y-96367638D01*
X163039198Y-96323070D01*
X163115774Y-96289741D01*
X163208009Y-96266861D01*
X163317712Y-96253636D01*
X163446691Y-96249275D01*
X163450263Y-96249270D01*
X163510283Y-96249410D01*
X163552214Y-96250446D01*
X163580328Y-96253040D01*
X163598897Y-96257853D01*
X163612194Y-96265544D01*
X163624491Y-96276776D01*
X163652200Y-96304485D01*
X163652200Y-96613920D01*
X163652175Y-96675526D01*
X163651950Y-96754311D01*
X163651332Y-96815021D01*
X163650775Y-96836089D01*
X163650133Y-96860396D01*
G37*
X164453711Y-91942033D02*
X164549268Y-91959523D01*
X164713558Y-92004564D01*
X164867589Y-92067656D01*
X165013509Y-92149915D01*
X165153466Y-92252457D01*
X165289608Y-92376399D01*
X165333473Y-92421661D01*
X165445758Y-92553865D01*
X165538972Y-92691832D01*
X165615719Y-92839750D01*
X165678603Y-93001803D01*
X165682420Y-93013391D01*
X165732507Y-93199392D01*
X165765899Y-93395521D01*
X165782584Y-93597568D01*
X165782551Y-93801325D01*
X165765791Y-94002581D01*
X165732292Y-94197128D01*
X165682044Y-94380756D01*
X165638190Y-94498053D01*
X165560348Y-94660951D01*
X165466828Y-94814866D01*
X165359822Y-94956671D01*
X165241519Y-95083239D01*
X165114111Y-95191441D01*
X165036606Y-95244120D01*
X164909725Y-95313750D01*
X164772243Y-95372468D01*
X164630716Y-95417587D01*
X164491702Y-95446422D01*
X164477597Y-95448106D01*
X164434153Y-95451434D01*
X164376723Y-95454275D01*
X164311122Y-95456373D01*
X164243167Y-95457468D01*
X164116378Y-95455140D01*
X163968673Y-95442136D01*
X163830779Y-95417133D01*
X163697014Y-95379318D01*
X163673562Y-95370889D01*
X163625612Y-95351408D01*
X163569140Y-95326473D01*
X163507379Y-95297722D01*
X163443563Y-95266790D01*
X163380926Y-95235315D01*
X163322703Y-95204934D01*
X163272127Y-95177283D01*
X163232433Y-95153999D01*
X163206854Y-95136718D01*
X163198625Y-95127079D01*
X163200076Y-95123984D01*
X163211250Y-95104079D01*
X163232134Y-95068420D01*
X163261265Y-95019459D01*
X163297181Y-94959646D01*
X163338420Y-94891433D01*
X163383517Y-94817271D01*
X163564785Y-94520008D01*
X163611315Y-94564539D01*
X163702723Y-94642865D01*
X163816334Y-94717439D01*
X163934122Y-94771474D01*
X164054559Y-94804290D01*
X164176117Y-94815211D01*
X164217585Y-94813868D01*
X164335080Y-94795612D01*
X164445089Y-94756617D01*
X164546430Y-94697670D01*
X164637921Y-94619557D01*
X164718380Y-94523064D01*
X164786627Y-94408978D01*
X164802908Y-94374724D01*
X164848982Y-94251240D01*
X164884106Y-94112918D01*
X164908197Y-93963561D01*
X164921173Y-93806973D01*
X164922949Y-93646956D01*
X164913443Y-93487314D01*
X164892572Y-93331850D01*
X164860252Y-93184366D01*
X164816399Y-93048667D01*
X164778982Y-92962076D01*
X164714185Y-92848688D01*
X164638772Y-92755070D01*
X164552418Y-92680959D01*
X164454795Y-92626094D01*
X164345577Y-92590212D01*
X164224439Y-92573051D01*
X164155038Y-92571880D01*
X164032168Y-92586141D01*
X163916664Y-92621241D01*
X163809953Y-92676682D01*
X163713464Y-92751964D01*
X163697720Y-92766440D01*
X163667150Y-92792962D01*
X163644809Y-92810138D01*
X163634691Y-92814787D01*
X163632706Y-92812597D01*
X163618241Y-92793721D01*
X163594400Y-92760397D01*
X163563029Y-92715380D01*
X163525974Y-92661425D01*
X163485083Y-92601285D01*
X163442202Y-92537718D01*
X163399178Y-92473476D01*
X163357857Y-92411315D01*
X163320086Y-92353991D01*
X163287712Y-92304257D01*
X163262582Y-92264868D01*
X163246542Y-92238580D01*
X163241439Y-92228147D01*
X163246050Y-92223941D01*
X163265267Y-92218933D01*
X163274838Y-92216386D01*
X163302809Y-92205249D01*
X163344448Y-92186802D01*
X163395995Y-92162725D01*
X163453690Y-92134699D01*
X163464957Y-92129154D01*
X163642687Y-92049889D01*
X163812490Y-91990385D01*
X163976430Y-91950245D01*
X164136571Y-91929071D01*
X164294977Y-91926466D01*
X164453711Y-91942033D01*
G36*
X164453711Y-91942033D02*
G01*
X164549268Y-91959523D01*
X164713558Y-92004564D01*
X164867589Y-92067656D01*
X165013509Y-92149915D01*
X165153466Y-92252457D01*
X165289608Y-92376399D01*
X165333473Y-92421661D01*
X165445758Y-92553865D01*
X165538972Y-92691832D01*
X165615719Y-92839750D01*
X165678603Y-93001803D01*
X165682420Y-93013391D01*
X165732507Y-93199392D01*
X165765899Y-93395521D01*
X165782584Y-93597568D01*
X165782551Y-93801325D01*
X165765791Y-94002581D01*
X165732292Y-94197128D01*
X165682044Y-94380756D01*
X165638190Y-94498053D01*
X165560348Y-94660951D01*
X165466828Y-94814866D01*
X165359822Y-94956671D01*
X165241519Y-95083239D01*
X165114111Y-95191441D01*
X165036606Y-95244120D01*
X164909725Y-95313750D01*
X164772243Y-95372468D01*
X164630716Y-95417587D01*
X164491702Y-95446422D01*
X164477597Y-95448106D01*
X164434153Y-95451434D01*
X164376723Y-95454275D01*
X164311122Y-95456373D01*
X164243167Y-95457468D01*
X164116378Y-95455140D01*
X163968673Y-95442136D01*
X163830779Y-95417133D01*
X163697014Y-95379318D01*
X163673562Y-95370889D01*
X163625612Y-95351408D01*
X163569140Y-95326473D01*
X163507379Y-95297722D01*
X163443563Y-95266790D01*
X163380926Y-95235315D01*
X163322703Y-95204934D01*
X163272127Y-95177283D01*
X163232433Y-95153999D01*
X163206854Y-95136718D01*
X163198625Y-95127079D01*
X163200076Y-95123984D01*
X163211250Y-95104079D01*
X163232134Y-95068420D01*
X163261265Y-95019459D01*
X163297181Y-94959646D01*
X163338420Y-94891433D01*
X163383517Y-94817271D01*
X163564785Y-94520008D01*
X163611315Y-94564539D01*
X163702723Y-94642865D01*
X163816334Y-94717439D01*
X163934122Y-94771474D01*
X164054559Y-94804290D01*
X164176117Y-94815211D01*
X164217585Y-94813868D01*
X164335080Y-94795612D01*
X164445089Y-94756617D01*
X164546430Y-94697670D01*
X164637921Y-94619557D01*
X164718380Y-94523064D01*
X164786627Y-94408978D01*
X164802908Y-94374724D01*
X164848982Y-94251240D01*
X164884106Y-94112918D01*
X164908197Y-93963561D01*
X164921173Y-93806973D01*
X164922949Y-93646956D01*
X164913443Y-93487314D01*
X164892572Y-93331850D01*
X164860252Y-93184366D01*
X164816399Y-93048667D01*
X164778982Y-92962076D01*
X164714185Y-92848688D01*
X164638772Y-92755070D01*
X164552418Y-92680959D01*
X164454795Y-92626094D01*
X164345577Y-92590212D01*
X164224439Y-92573051D01*
X164155038Y-92571880D01*
X164032168Y-92586141D01*
X163916664Y-92621241D01*
X163809953Y-92676682D01*
X163713464Y-92751964D01*
X163697720Y-92766440D01*
X163667150Y-92792962D01*
X163644809Y-92810138D01*
X163634691Y-92814787D01*
X163632706Y-92812597D01*
X163618241Y-92793721D01*
X163594400Y-92760397D01*
X163563029Y-92715380D01*
X163525974Y-92661425D01*
X163485083Y-92601285D01*
X163442202Y-92537718D01*
X163399178Y-92473476D01*
X163357857Y-92411315D01*
X163320086Y-92353991D01*
X163287712Y-92304257D01*
X163262582Y-92264868D01*
X163246542Y-92238580D01*
X163241439Y-92228147D01*
X163246050Y-92223941D01*
X163265267Y-92218933D01*
X163274838Y-92216386D01*
X163302809Y-92205249D01*
X163344448Y-92186802D01*
X163395995Y-92162725D01*
X163453690Y-92134699D01*
X163464957Y-92129154D01*
X163642687Y-92049889D01*
X163812490Y-91990385D01*
X163976430Y-91950245D01*
X164136571Y-91929071D01*
X164294977Y-91926466D01*
X164453711Y-91942033D01*
G37*
X167451137Y-96253463D02*
X167485291Y-96276776D01*
X167513000Y-96304485D01*
X167513000Y-96617537D01*
X167512959Y-96701567D01*
X167512701Y-96775789D01*
X167512030Y-96832541D01*
X167510752Y-96874512D01*
X167508673Y-96904389D01*
X167505599Y-96924861D01*
X167501334Y-96938614D01*
X167495684Y-96948337D01*
X167488455Y-96956717D01*
X167456991Y-96978181D01*
X167421826Y-96979947D01*
X167388822Y-96960267D01*
X167383516Y-96954398D01*
X167378066Y-96945314D01*
X167373900Y-96931973D01*
X167370846Y-96911757D01*
X167368732Y-96882049D01*
X167367386Y-96840232D01*
X167366638Y-96783689D01*
X167366314Y-96709802D01*
X167366245Y-96615956D01*
X167366284Y-96540294D01*
X167366539Y-96462385D01*
X167367183Y-96402375D01*
X167368387Y-96357648D01*
X167370324Y-96325585D01*
X167373164Y-96303571D01*
X167377079Y-96288987D01*
X167382242Y-96279218D01*
X167388822Y-96271645D01*
X167418006Y-96252623D01*
X167451137Y-96253463D01*
G36*
X167451137Y-96253463D02*
G01*
X167485291Y-96276776D01*
X167513000Y-96304485D01*
X167513000Y-96617537D01*
X167512959Y-96701567D01*
X167512701Y-96775789D01*
X167512030Y-96832541D01*
X167510752Y-96874512D01*
X167508673Y-96904389D01*
X167505599Y-96924861D01*
X167501334Y-96938614D01*
X167495684Y-96948337D01*
X167488455Y-96956717D01*
X167456991Y-96978181D01*
X167421826Y-96979947D01*
X167388822Y-96960267D01*
X167383516Y-96954398D01*
X167378066Y-96945314D01*
X167373900Y-96931973D01*
X167370846Y-96911757D01*
X167368732Y-96882049D01*
X167367386Y-96840232D01*
X167366638Y-96783689D01*
X167366314Y-96709802D01*
X167366245Y-96615956D01*
X167366284Y-96540294D01*
X167366539Y-96462385D01*
X167367183Y-96402375D01*
X167368387Y-96357648D01*
X167370324Y-96325585D01*
X167373164Y-96303571D01*
X167377079Y-96288987D01*
X167382242Y-96279218D01*
X167388822Y-96271645D01*
X167418006Y-96252623D01*
X167451137Y-96253463D01*
G37*
X163192755Y-94623467D02*
X163192261Y-94657363D01*
X163188632Y-94732202D01*
X163181022Y-94794401D01*
X163168688Y-94850984D01*
X163124313Y-94977076D01*
X163061400Y-95091679D01*
X162981238Y-95192568D01*
X162884740Y-95278924D01*
X162772822Y-95349932D01*
X162646397Y-95404776D01*
X162506378Y-95442638D01*
X162470149Y-95448351D01*
X162391155Y-95454313D01*
X162302841Y-95454646D01*
X162213075Y-95449659D01*
X162129722Y-95439666D01*
X162060651Y-95424978D01*
X161974187Y-95394749D01*
X161864286Y-95340057D01*
X161766956Y-95272543D01*
X161704867Y-95221556D01*
X161701605Y-95317622D01*
X161698343Y-95413689D01*
X161275450Y-95413689D01*
X161264543Y-95413686D01*
X161170056Y-95413380D01*
X161083331Y-95412616D01*
X161006837Y-95411451D01*
X160943043Y-95409942D01*
X160894418Y-95408147D01*
X160863433Y-95406121D01*
X160852556Y-95403922D01*
X160852578Y-95403463D01*
X160859614Y-95387910D01*
X160875434Y-95365071D01*
X160879734Y-95359638D01*
X160890777Y-95345606D01*
X160900311Y-95332186D01*
X160908461Y-95317722D01*
X160915352Y-95300556D01*
X160921111Y-95279034D01*
X160925862Y-95251498D01*
X160929731Y-95216292D01*
X160932844Y-95171760D01*
X160935325Y-95116246D01*
X160937300Y-95048093D01*
X160938894Y-94965645D01*
X160940234Y-94867246D01*
X160941444Y-94751239D01*
X160941896Y-94700462D01*
X161744378Y-94700462D01*
X161789048Y-94756973D01*
X161801785Y-94772212D01*
X161848604Y-94814844D01*
X161909255Y-94850672D01*
X161919897Y-94855850D01*
X161958676Y-94872745D01*
X161993692Y-94882909D01*
X162033722Y-94888325D01*
X162087541Y-94890978D01*
X162105648Y-94891383D01*
X162181011Y-94888540D01*
X162241743Y-94876620D01*
X162293452Y-94854037D01*
X162341746Y-94819211D01*
X162346803Y-94814798D01*
X162395272Y-94759160D01*
X162423459Y-94695333D01*
X162432752Y-94620282D01*
X162425520Y-94548693D01*
X162400796Y-94485645D01*
X162356249Y-94427758D01*
X162301319Y-94380808D01*
X162228894Y-94340961D01*
X162142340Y-94313263D01*
X162039670Y-94297096D01*
X161918894Y-94291842D01*
X161910007Y-94291857D01*
X161854660Y-94292655D01*
X161807736Y-94294488D01*
X161773953Y-94297111D01*
X161758028Y-94300274D01*
X161753943Y-94306741D01*
X161749572Y-94328875D01*
X161746604Y-94367988D01*
X161744914Y-94425939D01*
X161744378Y-94504586D01*
X161744378Y-94700462D01*
X160941896Y-94700462D01*
X160942649Y-94615968D01*
X160943975Y-94459778D01*
X160945228Y-94317012D01*
X160946651Y-94171942D01*
X160948176Y-94046027D01*
X160949933Y-93937436D01*
X160952051Y-93844334D01*
X160954660Y-93764891D01*
X160957890Y-93697273D01*
X160961869Y-93639649D01*
X160966728Y-93590185D01*
X160972597Y-93547050D01*
X160979604Y-93508410D01*
X160987880Y-93472434D01*
X160997554Y-93437289D01*
X161008756Y-93401142D01*
X161021616Y-93362161D01*
X161037090Y-93319091D01*
X161079994Y-93226871D01*
X161133735Y-93147099D01*
X161202576Y-93072965D01*
X161280185Y-93009405D01*
X161384761Y-92947725D01*
X161504244Y-92900202D01*
X161639508Y-92866567D01*
X161791426Y-92846552D01*
X161960872Y-92839889D01*
X162018890Y-92840287D01*
X162084398Y-92842335D01*
X162145693Y-92846704D01*
X162207097Y-92854035D01*
X162272932Y-92864969D01*
X162347520Y-92880147D01*
X162435184Y-92900209D01*
X162540245Y-92925797D01*
X162568806Y-92932820D01*
X162644054Y-92950776D01*
X162714388Y-92966820D01*
X162775567Y-92980028D01*
X162823354Y-92989474D01*
X162853511Y-92994231D01*
X162881783Y-92997910D01*
X162908060Y-93003187D01*
X162918059Y-93007942D01*
X162914952Y-93016781D01*
X162904194Y-93044072D01*
X162886864Y-93086906D01*
X162864126Y-93142425D01*
X162837147Y-93207772D01*
X162807090Y-93280089D01*
X162800493Y-93295879D01*
X162761907Y-93386484D01*
X162730768Y-93456217D01*
X162706917Y-93505405D01*
X162690198Y-93534374D01*
X162680454Y-93543452D01*
X162672766Y-93541405D01*
X162646415Y-93531760D01*
X162607982Y-93516190D01*
X162562822Y-93496815D01*
X162468293Y-93458814D01*
X162331480Y-93417780D01*
X162190289Y-93392612D01*
X162152314Y-93388611D01*
X162049059Y-93386447D01*
X161961952Y-93399622D01*
X161890129Y-93428756D01*
X161832731Y-93474466D01*
X161788896Y-93537372D01*
X161757762Y-93618092D01*
X161738470Y-93717245D01*
X161731050Y-93776224D01*
X161892936Y-93769445D01*
X162019495Y-93767813D01*
X162170951Y-93774194D01*
X162319396Y-93788777D01*
X162455578Y-93810882D01*
X162520245Y-93825821D01*
X162652490Y-93868741D01*
X162774762Y-93925340D01*
X162884685Y-93994017D01*
X162979883Y-94073170D01*
X163057980Y-94161196D01*
X163116599Y-94256493D01*
X163140595Y-94308864D01*
X163166232Y-94379590D01*
X163182478Y-94450812D01*
X163190822Y-94529712D01*
X163192690Y-94620282D01*
X163192755Y-94623467D01*
G36*
X163192755Y-94623467D02*
G01*
X163192261Y-94657363D01*
X163188632Y-94732202D01*
X163181022Y-94794401D01*
X163168688Y-94850984D01*
X163124313Y-94977076D01*
X163061400Y-95091679D01*
X162981238Y-95192568D01*
X162884740Y-95278924D01*
X162772822Y-95349932D01*
X162646397Y-95404776D01*
X162506378Y-95442638D01*
X162470149Y-95448351D01*
X162391155Y-95454313D01*
X162302841Y-95454646D01*
X162213075Y-95449659D01*
X162129722Y-95439666D01*
X162060651Y-95424978D01*
X161974187Y-95394749D01*
X161864286Y-95340057D01*
X161766956Y-95272543D01*
X161704867Y-95221556D01*
X161701605Y-95317622D01*
X161698343Y-95413689D01*
X161275450Y-95413689D01*
X161264543Y-95413686D01*
X161170056Y-95413380D01*
X161083331Y-95412616D01*
X161006837Y-95411451D01*
X160943043Y-95409942D01*
X160894418Y-95408147D01*
X160863433Y-95406121D01*
X160852556Y-95403922D01*
X160852578Y-95403463D01*
X160859614Y-95387910D01*
X160875434Y-95365071D01*
X160879734Y-95359638D01*
X160890777Y-95345606D01*
X160900311Y-95332186D01*
X160908461Y-95317722D01*
X160915352Y-95300556D01*
X160921111Y-95279034D01*
X160925862Y-95251498D01*
X160929731Y-95216292D01*
X160932844Y-95171760D01*
X160935325Y-95116246D01*
X160937300Y-95048093D01*
X160938894Y-94965645D01*
X160940234Y-94867246D01*
X160941444Y-94751239D01*
X160941896Y-94700462D01*
X161744378Y-94700462D01*
X161789048Y-94756973D01*
X161801785Y-94772212D01*
X161848604Y-94814844D01*
X161909255Y-94850672D01*
X161919897Y-94855850D01*
X161958676Y-94872745D01*
X161993692Y-94882909D01*
X162033722Y-94888325D01*
X162087541Y-94890978D01*
X162105648Y-94891383D01*
X162181011Y-94888540D01*
X162241743Y-94876620D01*
X162293452Y-94854037D01*
X162341746Y-94819211D01*
X162346803Y-94814798D01*
X162395272Y-94759160D01*
X162423459Y-94695333D01*
X162432752Y-94620282D01*
X162425520Y-94548693D01*
X162400796Y-94485645D01*
X162356249Y-94427758D01*
X162301319Y-94380808D01*
X162228894Y-94340961D01*
X162142340Y-94313263D01*
X162039670Y-94297096D01*
X161918894Y-94291842D01*
X161910007Y-94291857D01*
X161854660Y-94292655D01*
X161807736Y-94294488D01*
X161773953Y-94297111D01*
X161758028Y-94300274D01*
X161753943Y-94306741D01*
X161749572Y-94328875D01*
X161746604Y-94367988D01*
X161744914Y-94425939D01*
X161744378Y-94504586D01*
X161744378Y-94700462D01*
X160941896Y-94700462D01*
X160942649Y-94615968D01*
X160943975Y-94459778D01*
X160945228Y-94317012D01*
X160946651Y-94171942D01*
X160948176Y-94046027D01*
X160949933Y-93937436D01*
X160952051Y-93844334D01*
X160954660Y-93764891D01*
X160957890Y-93697273D01*
X160961869Y-93639649D01*
X160966728Y-93590185D01*
X160972597Y-93547050D01*
X160979604Y-93508410D01*
X160987880Y-93472434D01*
X160997554Y-93437289D01*
X161008756Y-93401142D01*
X161021616Y-93362161D01*
X161037090Y-93319091D01*
X161079994Y-93226871D01*
X161133735Y-93147099D01*
X161202576Y-93072965D01*
X161280185Y-93009405D01*
X161384761Y-92947725D01*
X161504244Y-92900202D01*
X161639508Y-92866567D01*
X161791426Y-92846552D01*
X161960872Y-92839889D01*
X162018890Y-92840287D01*
X162084398Y-92842335D01*
X162145693Y-92846704D01*
X162207097Y-92854035D01*
X162272932Y-92864969D01*
X162347520Y-92880147D01*
X162435184Y-92900209D01*
X162540245Y-92925797D01*
X162568806Y-92932820D01*
X162644054Y-92950776D01*
X162714388Y-92966820D01*
X162775567Y-92980028D01*
X162823354Y-92989474D01*
X162853511Y-92994231D01*
X162881783Y-92997910D01*
X162908060Y-93003187D01*
X162918059Y-93007942D01*
X162914952Y-93016781D01*
X162904194Y-93044072D01*
X162886864Y-93086906D01*
X162864126Y-93142425D01*
X162837147Y-93207772D01*
X162807090Y-93280089D01*
X162800493Y-93295879D01*
X162761907Y-93386484D01*
X162730768Y-93456217D01*
X162706917Y-93505405D01*
X162690198Y-93534374D01*
X162680454Y-93543452D01*
X162672766Y-93541405D01*
X162646415Y-93531760D01*
X162607982Y-93516190D01*
X162562822Y-93496815D01*
X162468293Y-93458814D01*
X162331480Y-93417780D01*
X162190289Y-93392612D01*
X162152314Y-93388611D01*
X162049059Y-93386447D01*
X161961952Y-93399622D01*
X161890129Y-93428756D01*
X161832731Y-93474466D01*
X161788896Y-93537372D01*
X161757762Y-93618092D01*
X161738470Y-93717245D01*
X161731050Y-93776224D01*
X161892936Y-93769445D01*
X162019495Y-93767813D01*
X162170951Y-93774194D01*
X162319396Y-93788777D01*
X162455578Y-93810882D01*
X162520245Y-93825821D01*
X162652490Y-93868741D01*
X162774762Y-93925340D01*
X162884685Y-93994017D01*
X162979883Y-94073170D01*
X163057980Y-94161196D01*
X163116599Y-94256493D01*
X163140595Y-94308864D01*
X163166232Y-94379590D01*
X163182478Y-94450812D01*
X163190822Y-94529712D01*
X163192690Y-94620282D01*
X163192755Y-94623467D01*
G37*
X168305853Y-96249936D02*
X168372100Y-96255366D01*
X168427400Y-96264964D01*
X168478283Y-96279825D01*
X168549595Y-96312958D01*
X168600752Y-96355640D01*
X168631575Y-96407705D01*
X168641889Y-96468983D01*
X168640952Y-96500232D01*
X168635160Y-96525029D01*
X168620353Y-96546699D01*
X168592380Y-96574049D01*
X168584402Y-96581378D01*
X168560692Y-96602281D01*
X168538298Y-96619251D01*
X168514265Y-96633205D01*
X168485637Y-96645056D01*
X168449460Y-96655720D01*
X168402780Y-96666111D01*
X168342641Y-96677146D01*
X168266090Y-96689738D01*
X168170171Y-96704804D01*
X168151808Y-96707838D01*
X168089478Y-96721458D01*
X168044260Y-96737192D01*
X168017976Y-96754263D01*
X168012447Y-96771897D01*
X168015068Y-96776168D01*
X168033000Y-96791233D01*
X168061126Y-96807867D01*
X168073926Y-96813857D01*
X168095224Y-96821050D01*
X168121610Y-96825827D01*
X168157454Y-96828646D01*
X168207128Y-96829964D01*
X168275000Y-96830237D01*
X168292785Y-96830164D01*
X168360406Y-96829053D01*
X168425345Y-96826828D01*
X168480970Y-96823762D01*
X168520651Y-96820127D01*
X168556162Y-96816059D01*
X168585415Y-96815276D01*
X168604315Y-96819876D01*
X168619429Y-96830551D01*
X168623085Y-96834144D01*
X168639427Y-96865918D01*
X168638107Y-96901572D01*
X168619150Y-96932190D01*
X168598780Y-96943796D01*
X168562796Y-96956491D01*
X168520372Y-96966541D01*
X168516922Y-96967140D01*
X168474252Y-96972356D01*
X168416866Y-96976730D01*
X168351849Y-96979818D01*
X168286289Y-96981177D01*
X168270057Y-96981218D01*
X168171744Y-96978741D01*
X168091692Y-96970735D01*
X168026513Y-96956203D01*
X167972817Y-96934149D01*
X167927216Y-96903576D01*
X167886323Y-96863486D01*
X167866202Y-96837259D01*
X167854576Y-96807712D01*
X167851667Y-96767995D01*
X167851808Y-96756026D01*
X167855681Y-96723345D01*
X167868065Y-96696819D01*
X167893230Y-96665971D01*
X167914442Y-96643831D01*
X167940838Y-96621285D01*
X167970555Y-96602917D01*
X168006785Y-96587661D01*
X168052717Y-96574449D01*
X168111544Y-96562214D01*
X168186456Y-96549889D01*
X168280645Y-96536406D01*
X168325957Y-96529396D01*
X168393911Y-96514837D01*
X168443047Y-96498337D01*
X168472614Y-96480439D01*
X168481864Y-96461685D01*
X168470048Y-96442615D01*
X168436416Y-96423771D01*
X168433370Y-96422557D01*
X168387011Y-96410479D01*
X168324361Y-96402279D01*
X168250927Y-96398119D01*
X168172217Y-96398161D01*
X168093739Y-96402569D01*
X168021000Y-96411505D01*
X168017073Y-96412154D01*
X167968257Y-96419861D01*
X167936005Y-96423473D01*
X167915008Y-96422876D01*
X167899954Y-96417954D01*
X167885534Y-96408596D01*
X167884364Y-96407725D01*
X167859847Y-96377351D01*
X167855054Y-96341850D01*
X167870860Y-96307269D01*
X167875406Y-96302813D01*
X167905020Y-96287673D01*
X167952002Y-96274550D01*
X168012306Y-96263750D01*
X168081888Y-96255581D01*
X168156703Y-96250351D01*
X168232706Y-96248367D01*
X168305853Y-96249936D01*
G36*
X168305853Y-96249936D02*
G01*
X168372100Y-96255366D01*
X168427400Y-96264964D01*
X168478283Y-96279825D01*
X168549595Y-96312958D01*
X168600752Y-96355640D01*
X168631575Y-96407705D01*
X168641889Y-96468983D01*
X168640952Y-96500232D01*
X168635160Y-96525029D01*
X168620353Y-96546699D01*
X168592380Y-96574049D01*
X168584402Y-96581378D01*
X168560692Y-96602281D01*
X168538298Y-96619251D01*
X168514265Y-96633205D01*
X168485637Y-96645056D01*
X168449460Y-96655720D01*
X168402780Y-96666111D01*
X168342641Y-96677146D01*
X168266090Y-96689738D01*
X168170171Y-96704804D01*
X168151808Y-96707838D01*
X168089478Y-96721458D01*
X168044260Y-96737192D01*
X168017976Y-96754263D01*
X168012447Y-96771897D01*
X168015068Y-96776168D01*
X168033000Y-96791233D01*
X168061126Y-96807867D01*
X168073926Y-96813857D01*
X168095224Y-96821050D01*
X168121610Y-96825827D01*
X168157454Y-96828646D01*
X168207128Y-96829964D01*
X168275000Y-96830237D01*
X168292785Y-96830164D01*
X168360406Y-96829053D01*
X168425345Y-96826828D01*
X168480970Y-96823762D01*
X168520651Y-96820127D01*
X168556162Y-96816059D01*
X168585415Y-96815276D01*
X168604315Y-96819876D01*
X168619429Y-96830551D01*
X168623085Y-96834144D01*
X168639427Y-96865918D01*
X168638107Y-96901572D01*
X168619150Y-96932190D01*
X168598780Y-96943796D01*
X168562796Y-96956491D01*
X168520372Y-96966541D01*
X168516922Y-96967140D01*
X168474252Y-96972356D01*
X168416866Y-96976730D01*
X168351849Y-96979818D01*
X168286289Y-96981177D01*
X168270057Y-96981218D01*
X168171744Y-96978741D01*
X168091692Y-96970735D01*
X168026513Y-96956203D01*
X167972817Y-96934149D01*
X167927216Y-96903576D01*
X167886323Y-96863486D01*
X167866202Y-96837259D01*
X167854576Y-96807712D01*
X167851667Y-96767995D01*
X167851808Y-96756026D01*
X167855681Y-96723345D01*
X167868065Y-96696819D01*
X167893230Y-96665971D01*
X167914442Y-96643831D01*
X167940838Y-96621285D01*
X167970555Y-96602917D01*
X168006785Y-96587661D01*
X168052717Y-96574449D01*
X168111544Y-96562214D01*
X168186456Y-96549889D01*
X168280645Y-96536406D01*
X168325957Y-96529396D01*
X168393911Y-96514837D01*
X168443047Y-96498337D01*
X168472614Y-96480439D01*
X168481864Y-96461685D01*
X168470048Y-96442615D01*
X168436416Y-96423771D01*
X168433370Y-96422557D01*
X168387011Y-96410479D01*
X168324361Y-96402279D01*
X168250927Y-96398119D01*
X168172217Y-96398161D01*
X168093739Y-96402569D01*
X168021000Y-96411505D01*
X168017073Y-96412154D01*
X167968257Y-96419861D01*
X167936005Y-96423473D01*
X167915008Y-96422876D01*
X167899954Y-96417954D01*
X167885534Y-96408596D01*
X167884364Y-96407725D01*
X167859847Y-96377351D01*
X167855054Y-96341850D01*
X167870860Y-96307269D01*
X167875406Y-96302813D01*
X167905020Y-96287673D01*
X167952002Y-96274550D01*
X168012306Y-96263750D01*
X168081888Y-96255581D01*
X168156703Y-96250351D01*
X168232706Y-96248367D01*
X168305853Y-96249936D01*
G37*
%TD*%
M02*
